<svg width="32" height="32" viewBox="0 0 32 32" fill="none" xmlns="http://www.w3.org/2000/svg">
<path fill-rule="evenodd" clip-rule="evenodd" d="M3.5 16C3.5 15.1716 4.17157 14.5 5 14.5H27C27.8284 14.5 28.5 15.1716 28.5 16C28.5 16.8284 27.8284 17.5 27 17.5H5C4.17157 17.5 3.5 16.8284 3.5 16Z" fill="#889099"/>
<path fill-rule="evenodd" clip-rule="evenodd" d="M16.9393 5.93934C17.5251 5.35355 18.4749 5.35355 19.0607 5.93934L28.0607 14.9393C28.6464 15.5251 28.6464 16.4749 28.0607 17.0607L19.0607 26.0607C18.4749 26.6464 17.5251 26.6464 16.9393 26.0607C16.3536 25.4749 16.3536 24.5251 16.9393 23.9393L24.8787 16L16.9393 8.06066C16.3536 7.47487 16.3536 6.52513 16.9393 5.93934Z" fill="#889099"/>
</svg>
