<svg width="32" height="32" viewBox="0 0 32 32" fill="none" xmlns="http://www.w3.org/2000/svg">
<path fill-rule="evenodd" clip-rule="evenodd" d="M16 3.5C16.8284 3.5 17.5 4.17157 17.5 5V27C17.5 27.8284 16.8284 28.5 16 28.5C15.1716 28.5 14.5 27.8284 14.5 27V5C14.5 4.17157 15.1716 3.5 16 3.5Z" fill="#889099"/>
<path fill-rule="evenodd" clip-rule="evenodd" d="M14.9393 3.93934C15.5251 3.35355 16.4749 3.35355 17.0607 3.93934L26.0607 12.9393C26.6464 13.5251 26.6464 14.4749 26.0607 15.0607C25.4749 15.6464 24.5251 15.6464 23.9393 15.0607L16 7.12132L8.06066 15.0607C7.47487 15.6464 6.52513 15.6464 5.93934 15.0607C5.35355 14.4749 5.35355 13.5251 5.93934 12.9393L14.9393 3.93934Z" fill="#889099"/>
</svg>
