<svg width="32" height="32" viewBox="0 0 32 32" fill="none" xmlns="http://www.w3.org/2000/svg">
<path fill-rule="evenodd" clip-rule="evenodd" d="M18 4.9998C18.0001 4.17137 18.6718 3.49989 19.5002 3.5L26.9992 3.501C27.8275 3.50111 28.4989 4.17253 28.499 5.0008L28.5 12.4998C28.5001 13.3282 27.8286 13.9999 27.0002 14C26.1718 14.0001 25.5001 13.3286 25.5 12.5002L25.4992 6.5008L19.4998 6.5C18.6714 6.49989 17.9999 5.82823 18 4.9998Z" fill="#889099"/>
<path fill-rule="evenodd" clip-rule="evenodd" d="M28.0568 3.943C28.6425 4.52879 28.6425 5.47854 28.0568 6.06432L19.0568 15.0643C18.471 15.6501 17.5212 15.6501 16.9354 15.0643C16.3496 14.4785 16.3496 13.5288 16.9354 12.943L25.9354 3.943C26.5212 3.35722 27.471 3.35722 28.0568 3.943Z" fill="#889099"/>
<path fill-rule="evenodd" clip-rule="evenodd" d="M6.5 10.5H14C14.8284 10.5 15.5 9.82843 15.5 9C15.5 8.17157 14.8284 7.5 14 7.5H6C5.33696 7.5 4.70107 7.76339 4.23223 8.23223C3.76339 8.70107 3.5 9.33696 3.5 10V26C3.5 26.663 3.76339 27.2989 4.23223 27.7678C4.70108 28.2366 5.33696 28.5 6 28.5H22C22.663 28.5 23.2989 28.2366 23.7678 27.7678C24.2366 27.2989 24.5 26.663 24.5 26V18C24.5 17.1716 23.8284 16.5 23 16.5C22.1716 16.5 21.5 17.1716 21.5 18V25.5H6.5V10.5Z" fill="#889099"/>
</svg>
