<svg width="32" height="32" viewBox="0 0 32 32" fill="none" xmlns="http://www.w3.org/2000/svg">
<path fill-rule="evenodd" clip-rule="evenodd" d="M16 3.5C16.8284 3.5 17.5 4.17157 17.5 5V27C17.5 27.8284 16.8284 28.5 16 28.5C15.1716 28.5 14.5 27.8284 14.5 27V5C14.5 4.17157 15.1716 3.5 16 3.5Z" fill="#889099"/>
<path fill-rule="evenodd" clip-rule="evenodd" d="M5.93934 16.9393C6.52513 16.3536 7.47487 16.3536 8.06066 16.9393L16 24.8787L23.9393 16.9393C24.5251 16.3536 25.4749 16.3536 26.0607 16.9393C26.6464 17.5251 26.6464 18.4749 26.0607 19.0607L17.0607 28.0607C16.4749 28.6464 15.5251 28.6464 14.9393 28.0607L5.93934 19.0607C5.35355 18.4749 5.35355 17.5251 5.93934 16.9393Z" fill="#889099"/>
</svg>
