<svg width="32" height="32" viewBox="0 0 32 32" fill="none" xmlns="http://www.w3.org/2000/svg">
<path fill-rule="evenodd" clip-rule="evenodd" d="M3.5 16C3.5 15.1716 4.17157 14.5 5 14.5H27C27.8284 14.5 28.5 15.1716 28.5 16C28.5 16.8284 27.8284 17.5 27 17.5H5C4.17157 17.5 3.5 16.8284 3.5 16Z" fill="#889099"/>
<path fill-rule="evenodd" clip-rule="evenodd" d="M15.0607 5.93934C15.6464 6.52513 15.6464 7.47487 15.0607 8.06066L7.12132 16L15.0607 23.9393C15.6464 24.5251 15.6464 25.4749 15.0607 26.0607C14.4749 26.6464 13.5251 26.6464 12.9393 26.0607L3.93934 17.0607C3.35355 16.4749 3.35355 15.5251 3.93934 14.9393L12.9393 5.93934C13.5251 5.35355 14.4749 5.35355 15.0607 5.93934Z" fill="#889099"/>
</svg>
