<svg width="32" height="32" viewBox="0 0 32 32" fill="none" xmlns="http://www.w3.org/2000/svg">
<path d="M27.6017 21.9924C26.8599 20.7155 25.9755 18.2922 25.9755 14V13.1129C25.9755 7.57728 21.5346 3.04078 16.076 3.00025C16.0504 3.00012 16.0252 3 15.9997 3C13.3509 3.00344 10.812 4.05894 8.94147 5.93429C7.07092 7.80965 6.02195 10.3512 6.0253 13V14C6.0253 18.292 5.14041 20.7151 4.39822 21.9919C4.22095 22.2956 4.12688 22.6407 4.1255 22.9923C4.12413 23.344 4.2155 23.6898 4.39041 23.9948C4.56531 24.2999 4.81756 24.5535 5.12172 24.7299C5.42587 24.9064 5.77119 24.9996 6.12283 25H10.9999C10.9999 26.3261 11.5267 27.5979 12.4644 28.5355C13.4021 29.4732 14.6738 30 15.9999 30C17.326 30 18.5978 29.4732 19.5354 28.5355C20.4731 27.5979 20.9999 26.3261 20.9999 25H25.877C26.2286 24.9996 26.5738 24.9064 26.878 24.73C27.1821 24.5536 27.4343 24.3001 27.6092 23.9951C27.7841 23.6901 27.8755 23.3443 27.8742 22.9927C27.8729 22.6412 27.7789 22.2961 27.6017 21.9924ZM15.9999 28C15.2045 27.9991 14.442 27.6827 13.8796 27.1203C13.3172 26.5579 13.0008 25.7954 12.9999 25H18.9999C18.999 25.7954 18.6826 26.5579 18.1202 27.1203C17.5578 27.6827 16.7953 27.9991 15.9999 28Z" fill="#889099"/>
</svg>
