<svg width="32" height="32" viewBox="0 0 32 32" fill="none" xmlns="http://www.w3.org/2000/svg">
<path fill-rule="evenodd" clip-rule="evenodd" d="M6.5 6.5V25.5H25.5V6.5H6.5ZM3.5 6C3.5 4.61929 4.61929 3.5 6 3.5H26C27.3807 3.5 28.5 4.61929 28.5 6V26C28.5 27.3807 27.3807 28.5 26 28.5H6C4.61929 28.5 3.5 27.3807 3.5 26V6Z" fill="#889099"/>
<path fill-rule="evenodd" clip-rule="evenodd" d="M22 1C22.8284 1 23.5 1.67157 23.5 2.5V5C23.5 5.82843 22.8284 6.5 22 6.5C21.1716 6.5 20.5 5.82843 20.5 5V2.5C20.5 1.67157 21.1716 1 22 1Z" fill="#889099"/>
<path fill-rule="evenodd" clip-rule="evenodd" d="M10 1C10.8284 1 11.5 1.67157 11.5 2.5V5C11.5 5.82843 10.8284 6.5 10 6.5C9.17157 6.5 8.5 5.82843 8.5 5V2.5C8.5 1.67157 9.17157 1 10 1Z" fill="#889099"/>
<path fill-rule="evenodd" clip-rule="evenodd" d="M3.5 11C3.5 10.1716 4.17157 9.5 5 9.5H27C27.8284 9.5 28.5 10.1716 28.5 11C28.5 11.8284 27.8284 12.5 27 12.5H5C4.17157 12.5 3.5 11.8284 3.5 11Z" fill="#889099"/>
</svg>
