<svg xmlns="http://www.w3.org/2000/svg" width="20" height="20" viewBox="0 0 32 32" >
  <path fill-rule="evenodd" clip-rule="evenodd" d="M21 19.5C21 18.5111 20.7068 17.5444 20.1574 16.7222C19.6079 15.8999 18.827 15.259 17.9134 14.8806C16.9998 14.5022 15.9945 14.4032 15.0246 14.5961C14.0546 14.789 13.1637 15.2652 12.4645 15.9645C11.7652 16.6637 11.289 17.5546 11.0961 18.5246C10.9031 19.4945 11.0022 20.4998 11.3806 21.4134C11.759 22.3271 12.3999 23.1079 13.2222 23.6574C14.0444 24.2068 15.0111 24.5 16 24.5C17.3261 24.5 18.5979 23.9732 19.5355 23.0355C20.4732 22.0979 21 20.8261 21 19.5ZM14 19.5C14 19.1044 14.1173 18.7178 14.3371 18.3889C14.5568 18.06 14.8692 17.8036 15.2346 17.6522C15.6001 17.5009 16.0022 17.4613 16.3902 17.5384C16.7781 17.6156 17.1345 17.8061 17.4142 18.0858C17.6939 18.3655 17.8844 18.7219 17.9616 19.1098C18.0387 19.4978 17.9991 19.8999 17.8478 20.2654C17.6964 20.6308 17.44 20.9432 17.1111 21.1629C16.7822 21.3827 16.3956 21.5 16 21.5C15.4696 21.5 14.9609 21.2893 14.5858 20.9142C14.2107 20.5391 14 20.0304 14 19.5Z" />
  <path fill-rule="evenodd" clip-rule="evenodd" d="M3.5 17L3.5 11C3.49992 10.716 3.58046 10.4378 3.73227 10.1978C3.88408 9.95775 4.10091 9.76575 4.35755 9.64412C4.61418 9.52248 5 9.51065 5.18198 9.51065L26.818 9.51065C27 9.51065 27.3858 9.52248 27.6425 9.64412C27.8991 9.76576 28.1159 9.95775 28.2677 10.1978C28.4195 10.4378 28.5001 10.716 28.5 11V17C28.5 20.3152 27.183 23.4946 24.8388 25.8388C22.4946 28.183 19.3152 29.5 16 29.5C12.6848 29.5 9.50537 28.183 7.16117 25.8388C4.81696 23.4946 3.5 20.3152 3.5 17ZM6.5 17C6.5 19.5196 7.50089 21.9359 9.28249 23.7175C11.0641 25.4991 13.4804 26.5 16 26.5C18.5196 26.5 20.9359 25.4991 22.7175 23.7175C24.4991 21.9359 25.5 19.5196 25.5 17V12.5033L6.5 12.4995L6.5 17Z" />
  <path d="M29.5 6C29.5 6.39783 29.342 6.77935 29.0607 7.06066C28.7794 7.34196 28.3978 7.5 28 7.5L4 7.5C3.60217 7.5 3.22064 7.34196 2.93934 7.06066C2.65804 6.77935 2.5 6.39783 2.5 6C2.5 5.60217 2.65804 5.22065 2.93934 4.93934C3.22064 4.65804 3.60217 4.5 4 4.5L28 4.5C28.3978 4.5 28.7794 4.65804 29.0607 4.93934C29.342 5.22064 29.5 5.60218 29.5 6Z" />
</svg>