<svg width="32" height="32" viewBox="0 0 32 32" fill="none" xmlns="http://www.w3.org/2000/svg">
<path fill-rule="evenodd" clip-rule="evenodd" d="M5.93934 4.93934C6.52513 4.35355 7.47487 4.35355 8.06066 4.93934L18.0607 14.9393C18.6464 15.5251 18.6464 16.4749 18.0607 17.0607L8.06066 27.0607C7.47487 27.6464 6.52513 27.6464 5.93934 27.0607C5.35355 26.4749 5.35355 25.5251 5.93934 24.9393L14.8787 16L5.93934 7.06066C5.35355 6.47487 5.35355 5.52513 5.93934 4.93934Z" fill="#889099"/>
<path fill-rule="evenodd" clip-rule="evenodd" d="M15.9393 4.93934C16.5251 4.35355 17.4749 4.35355 18.0607 4.93934L28.0607 14.9393C28.6464 15.5251 28.6464 16.4749 28.0607 17.0607L18.0607 27.0607C17.4749 27.6464 16.5251 27.6464 15.9393 27.0607C15.3536 26.4749 15.3536 25.5251 15.9393 24.9393L24.8787 16L15.9393 7.06066C15.3536 6.47487 15.3536 5.52513 15.9393 4.93934Z" fill="#889099"/>
</svg>
