<svg xmlns="http://www.w3.org/2000/svg" width="20" height="20" viewBox="0 0 32 32" >
<path fill-rule="evenodd" clip-rule="evenodd" d="M22.5 3V7H27C27.663 7 28.2989 7.26339 28.7678 7.73223C29.2366 8.20107 29.5 8.83696 29.5 9.5V27.5C29.5 28.163 29.2366 28.7989 28.7678 29.2678C28.2989 29.7366 27.663 30 27 30H5C4.33696 30 3.70107 29.7366 3.23223 29.2678C2.76339 28.7989 2.5 28.163 2.5 27.5V9.5C2.5 8.83696 2.76339 8.20107 3.23223 7.73223C3.70107 7.26339 4.33696 7 5 7H9.5V3C9.5 2.60217 9.65809 2.22064 9.93939 1.93934C10.2207 1.65804 10.6022 1.5 11 1.5C11.3978 1.5 11.7794 1.65804 12.0607 1.93934C12.342 2.22064 12.5 2.60217 12.5 3V7H19.5V3C19.5 2.60217 19.6581 2.22064 19.9394 1.93934C20.2207 1.65804 20.6022 1.5 21 1.5C21.3979 1.5 21.7794 1.65804 22.0607 1.93934C22.342 2.22064 22.5 2.60217 22.5 3ZM5.5 27H26.5V10H5.5V27Z" />
</svg>