<svg width="32" height="32" viewBox="0 0 32 32" fill="none" xmlns="http://www.w3.org/2000/svg">
<g clip-path="url(#clip0_829_37)">
<path fill-rule="evenodd" clip-rule="evenodd" d="M9.5 4.99902C9.5 4.1706 10.1716 3.49902 11 3.49902H27C27.8284 3.49902 28.5 4.1706 28.5 4.99902V20.999C28.5 21.8274 27.8284 22.499 27 22.499H21C20.1716 22.499 19.5 21.8274 19.5 20.999C19.5 20.1706 20.1716 19.499 21 19.499H25.5V6.49902H12.5V10.999C12.5 11.8274 11.8284 12.499 11 12.499C10.1716 12.499 9.5 11.8274 9.5 10.999V4.99902Z" fill="#889099"/>
<path fill-rule="evenodd" clip-rule="evenodd" d="M3.5 10.9993C3.5 10.1708 4.17157 9.49927 5 9.49927H21C21.8284 9.49927 22.5 10.1708 22.5 10.9993V26.9993C22.5 27.8277 21.8284 28.4993 21 28.4993H5C4.17157 28.4993 3.5 27.8277 3.5 26.9993V10.9993ZM6.5 12.4993V25.4993H19.5V12.4993H6.5Z" fill="#889099"/>
</g>
<defs>
<clipPath id="clip0_829_37">
<rect width="32" height="32" fill="white"/>
</clipPath>
</defs>
</svg>
