<svg width="32" height="32" viewBox="0 0 32 32" fill="none" xmlns="http://www.w3.org/2000/svg">
<path d="M11 9.5C12.1046 9.5 13 8.60457 13 7.5C13 6.39543 12.1046 5.5 11 5.5C9.89543 5.5 9 6.39543 9 7.5C9 8.60457 9.89543 9.5 11 9.5Z" fill="#889099"/>
<path d="M19.5 9.5C20.6046 9.5 21.5 8.60457 21.5 7.5C21.5 6.39543 20.6046 5.5 19.5 5.5C18.3954 5.5 17.5 6.39543 17.5 7.5C17.5 8.60457 18.3954 9.5 19.5 9.5Z" fill="#889099"/>
<path d="M11 18C12.1046 18 13 17.1046 13 16C13 14.8954 12.1046 14 11 14C9.89543 14 9 14.8954 9 16C9 17.1046 9.89543 18 11 18Z" fill="#889099"/>
<path d="M19.5 18C20.6046 18 21.5 17.1046 21.5 16C21.5 14.8954 20.6046 14 19.5 14C18.3954 14 17.5 14.8954 17.5 16C17.5 17.1046 18.3954 18 19.5 18Z" fill="#889099"/>
<path d="M11 26.5C12.1046 26.5 13 25.6046 13 24.5C13 23.3954 12.1046 22.5 11 22.5C9.89543 22.5 9 23.3954 9 24.5C9 25.6046 9.89543 26.5 11 26.5Z" fill="#889099"/>
<path d="M19.5 26.5C20.6046 26.5 21.5 25.6046 21.5 24.5C21.5 23.3954 20.6046 22.5 19.5 22.5C18.3954 22.5 17.5 23.3954 17.5 24.5C17.5 25.6046 18.3954 26.5 19.5 26.5Z" fill="#889099"/>
</svg>
