<svg width="32" height="32" viewBox="0 0 32 32" fill="none" xmlns="http://www.w3.org/2000/svg">
<path fill-rule="evenodd" clip-rule="evenodd" d="M9.6892 12.6909C10.2749 12.1051 11.2247 12.105 11.8105 12.6907L16 16.879L20.1895 12.6907C20.7753 12.105 21.7251 12.1051 22.3108 12.6909C22.8965 13.2768 22.8964 14.2266 22.3105 14.8123L17.0605 20.0609C16.4748 20.6465 15.5252 20.6465 14.9395 20.0609L9.68948 14.8123C9.10362 14.2266 9.10349 13.2768 9.6892 12.6909Z" fill="#889099"/>
<path fill-rule="evenodd" clip-rule="evenodd" d="M16 3.5C16.8284 3.5 17.5 4.17157 17.5 5V18.9963C17.5 19.8247 16.8284 20.4963 16 20.4963C15.1716 20.4963 14.5 19.8247 14.5 18.9963V5C14.5 4.17157 15.1716 3.5 16 3.5Z" fill="#889099"/>
<path fill-rule="evenodd" clip-rule="evenodd" d="M5 17.5C5.82843 17.5 6.5 18.1716 6.5 19V25.5H25.5V19C25.5 18.1716 26.1716 17.5 27 17.5C27.8284 17.5 28.5 18.1716 28.5 19V26C28.5 26.663 28.2366 27.2989 27.7678 27.7678C27.2989 28.2366 26.663 28.5 26 28.5H6C5.33696 28.5 4.70108 28.2366 4.23223 27.7678C3.76339 27.2989 3.5 26.663 3.5 26V19C3.5 18.1716 4.17157 17.5 5 17.5Z" fill="#889099"/>
</svg>
