<svg width="32" height="32" viewBox="0 0 32 32" fill="none" xmlns="http://www.w3.org/2000/svg">
<path fill-rule="evenodd" clip-rule="evenodd" d="M2.5 7C2.5 6.17157 3.17157 5.5 4 5.5H28C28.8284 5.5 29.5 6.17157 29.5 7V24C29.5 24.663 29.2366 25.2989 28.7678 25.7678C28.2989 26.2366 27.663 26.5 27 26.5H5C4.33696 26.5 3.70108 26.2366 3.23223 25.7678C2.76339 25.2989 2.5 24.663 2.5 24V7ZM5.5 8.5V23.5H26.5V8.5H5.5Z" fill="#889099"/>
<path fill-rule="evenodd" clip-rule="evenodd" d="M2.89428 5.98642C3.45407 5.37574 4.40292 5.33449 5.0136 5.89428L16 15.9652L26.9864 5.89428C27.5971 5.33449 28.546 5.37574 29.1057 5.98642C29.6655 6.5971 29.6243 7.54595 29.0136 8.10574L17.0136 19.1057C16.4401 19.6314 15.5599 19.6314 14.9864 19.1057L2.98642 8.10574C2.37574 7.54595 2.33449 6.5971 2.89428 5.98642Z" fill="#889099"/>
</svg>
