<svg width="32" height="32" viewBox="0 0 32 32" fill="none" xmlns="http://www.w3.org/2000/svg">
<path fill-rule="evenodd" clip-rule="evenodd" d="M4.18928 10.4389C6.64 7.98792 10.5011 5.49902 16 5.49902C21.4989 5.49902 25.36 7.98792 27.8107 10.4389C29.0317 11.6601 29.9116 12.8786 30.4881 13.7944C30.7772 14.2535 30.9921 14.6399 31.1374 14.9173C31.2101 15.0561 31.2655 15.1679 31.3042 15.2482C31.3235 15.2884 31.3387 15.3208 31.3498 15.3447L31.3633 15.3743L31.3678 15.3842L31.3694 15.3879L31.3701 15.3895C31.3705 15.3902 31.3707 15.3908 30 16C31.3707 16.6093 31.3704 16.6099 31.3701 16.6106L31.3694 16.6122L31.3677 16.6159L31.3632 16.6258L31.3497 16.6554C31.3386 16.6793 31.3235 16.7117 31.3041 16.7518C31.2654 16.8322 31.21 16.944 31.1373 17.0827C30.992 17.3601 30.7771 17.7464 30.4881 18.2054C29.9115 19.121 29.0316 20.3393 27.8106 21.5602C25.3598 24.0107 21.4988 26.499 16 26.499C10.5012 26.499 6.64015 24.0107 4.1894 21.5602C2.96835 20.3393 2.0885 19.121 1.51194 18.2054C1.22292 17.7464 1.00797 17.3601 0.86269 17.0827C0.789994 16.944 0.734571 16.8322 0.695888 16.7518C0.676542 16.7117 0.661366 16.6793 0.650295 16.6554L0.636753 16.6258L0.632272 16.6159L0.6306 16.6122L0.629907 16.6106C0.629599 16.6099 0.629307 16.6093 2 16C0.629258 15.3908 0.62955 15.3902 0.629857 15.3895L0.630551 15.3879L0.632222 15.3842L0.636703 15.3743L0.650244 15.3447C0.661313 15.3208 0.676488 15.2884 0.695833 15.2482C0.734514 15.1679 0.789934 15.0561 0.862628 14.9173C1.00791 14.6399 1.22285 14.2535 1.51186 13.7944C2.08841 12.8786 2.96825 11.6601 4.18928 10.4389ZM2 16L0.629258 15.3908C0.456897 15.7787 0.456915 16.2214 0.629307 16.6093L2 16ZM3.68839 15.9999C3.78608 15.8263 3.90659 15.6216 4.05064 15.3928C4.53659 14.6209 5.28175 13.5892 6.31072 12.5601C8.36 10.5106 11.4989 8.49902 16 8.49902C20.5011 8.49902 23.64 10.5106 25.6893 12.5601C26.7183 13.5892 27.4634 14.6209 27.9494 15.3928C28.0934 15.6216 28.2139 15.8263 28.3116 15.9999C28.2139 16.1734 28.0934 16.3781 27.9494 16.6068C27.4635 17.3785 26.7184 18.4099 25.6894 19.4388C23.6402 21.4878 20.5012 23.499 16 23.499C11.4988 23.499 8.35985 21.4878 6.3106 19.4388C5.28165 18.4099 4.5365 17.3785 4.05056 16.6068C3.90655 16.3781 3.78607 16.1734 3.68839 15.9999ZM30 16L31.3707 16.6093C31.5431 16.2214 31.5431 15.7787 31.3707 15.3908L30 16Z" fill="#889099"/>
<path fill-rule="evenodd" clip-rule="evenodd" d="M16 13.5C14.6193 13.5 13.5 14.6193 13.5 16C13.5 17.3807 14.6193 18.5 16 18.5C17.3807 18.5 18.5 17.3807 18.5 16C18.5 14.6193 17.3807 13.5 16 13.5ZM10.5 16C10.5 12.9624 12.9624 10.5 16 10.5C19.0376 10.5 21.5 12.9624 21.5 16C21.5 19.0376 19.0376 21.5 16 21.5C12.9624 21.5 10.5 19.0376 10.5 16Z" fill="#889099"/>
</svg>
