<svg width="32" height="32" viewBox="0 0 32 32" fill="none" xmlns="http://www.w3.org/2000/svg">
<path fill-rule="evenodd" clip-rule="evenodd" d="M4.991 3.8901C5.60399 3.33284 6.55266 3.37802 7.10992 3.991L27.1099 25.991C27.6672 26.604 27.622 27.5527 27.009 28.1099C26.396 28.6672 25.4474 28.622 24.8901 28.009L4.8901 6.00902C4.33284 5.39603 4.37802 4.44736 4.991 3.8901Z" fill="#889099"/>
<path fill-rule="evenodd" clip-rule="evenodd" d="M10.5875 7.89663C10.9618 8.6357 10.666 9.53823 9.92697 9.91249C7.63754 11.0719 5.98852 12.7522 4.90425 14.1673C4.36461 14.8716 3.97319 15.4993 3.71969 15.9447C3.709 15.9635 3.69857 15.9819 3.68839 16C3.78607 16.1735 3.90655 16.3782 4.05056 16.6069C4.5365 17.3786 5.28165 18.4101 6.3106 19.4389C8.35985 21.4879 11.4988 23.4991 16 23.4991H16.0119V23.4992C18.1167 23.5159 20.1952 23.0311 22.0754 22.0849C22.8154 21.7125 23.7172 22.0105 24.0896 22.7505C24.462 23.4905 24.164 24.3923 23.424 24.7647C21.12 25.9242 18.5732 26.5187 15.9941 26.4991C10.4984 26.4973 6.63927 24.0099 4.1894 21.5603C2.96835 20.3394 2.0885 19.1211 1.51194 18.2055C1.22292 17.7465 1.00797 17.3602 0.86269 17.0828C0.789994 16.9441 0.734571 16.8323 0.695888 16.7519C0.676542 16.7118 0.661366 16.6794 0.650295 16.6555L0.636753 16.6259L0.632272 16.616L0.6306 16.6123L0.629907 16.6107C0.629599 16.61 0.629307 16.6094 2 16.0001C0.629258 15.3909 0.629469 15.3905 0.629688 15.39L0.63017 15.3889L0.631285 15.3864L0.634127 15.3801L0.642269 15.3622C0.648793 15.3479 0.657515 15.329 0.668461 15.3058C0.690349 15.2593 0.721156 15.1953 0.761091 15.1155C0.840923 14.956 0.957465 14.733 1.11243 14.4607C1.4219 13.917 1.88727 13.1722 2.52294 12.3426C3.78928 10.69 5.76491 8.65743 8.57164 7.2361C9.31071 6.86184 10.2132 7.15757 10.5875 7.89663ZM2 16.0001L0.629258 15.3909C0.456897 15.7788 0.456915 16.2215 0.629307 16.6094L2 16.0001Z" fill="#889099"/>
<path fill-rule="evenodd" clip-rule="evenodd" d="M14.4976 5.56263C14.9874 5.52003 15.4884 5.49902 16.0001 5.49902C21.4991 5.49902 25.3601 7.98792 27.8108 10.4389C29.0319 11.6601 29.9117 12.8786 30.4883 13.7944C30.7773 14.2535 30.9922 14.6399 31.1375 14.9173C31.2102 15.0561 31.2656 15.1679 31.3043 15.2482C31.3236 15.2884 31.3388 15.3208 31.3499 15.3447L31.3634 15.3743L31.3679 15.3842L31.3703 15.3895C31.3706 15.3902 31.3709 15.3908 30.0001 16C31.3708 16.6093 31.3707 16.6096 31.3705 16.6099L31.3679 16.6158L31.3635 16.6257L31.3501 16.6548C31.3392 16.6785 31.3242 16.7104 31.3051 16.75C31.267 16.8293 31.2124 16.9395 31.1407 17.0764C30.9976 17.35 30.7859 17.7312 30.5013 18.1845C29.9336 19.0887 29.0676 20.2931 27.8664 21.5044C27.283 22.0926 26.3333 22.0966 25.745 21.5132C25.1568 20.9299 25.1529 19.9801 25.7362 19.3919C26.7489 18.3707 27.4824 17.351 27.9606 16.5893C28.0997 16.3677 28.2166 16.169 28.3117 15.9999C28.214 15.8263 28.0935 15.6216 27.9495 15.3928C27.4635 14.6209 26.7184 13.5892 25.6894 12.5601C23.6401 10.5106 20.5012 8.49902 16.0001 8.49902C15.5704 8.49902 15.1563 8.51666 14.7575 8.55135C13.9322 8.62313 13.205 8.01227 13.1332 7.18696C13.0614 6.36164 13.6723 5.63441 14.4976 5.56263ZM28.631 16.6127C28.6312 16.6133 28.6312 16.6131 28.631 16.6127V16.6127ZM30.0001 16L31.3705 16.6099C31.5429 16.2221 31.5432 15.7787 31.3709 15.3908L30.0001 16Z" fill="#889099"/>
</svg>
