<svg width="32" height="32" viewBox="0 0 32 32" fill="none" xmlns="http://www.w3.org/2000/svg">
<g clip-path="url(#clip0_1271_14511)">
<path fill-rule="evenodd" clip-rule="evenodd" d="M6.5 16C6.5 15.1716 7.17157 14.5 8 14.5H24C24.8284 14.5 25.5 15.1716 25.5 16C25.5 16.8284 24.8284 17.5 24 17.5H8C7.17157 17.5 6.5 16.8284 6.5 16Z" fill="#889099"/>
<path fill-rule="evenodd" clip-rule="evenodd" d="M1.5 10C1.5 9.17157 2.17157 8.5 3 8.5H29C29.8284 8.5 30.5 9.17157 30.5 10C30.5 10.8284 29.8284 11.5 29 11.5H3C2.17157 11.5 1.5 10.8284 1.5 10Z" fill="#889099"/>
<path fill-rule="evenodd" clip-rule="evenodd" d="M11.5 22C11.5 21.1716 12.1716 20.5 13 20.5H19C19.8284 20.5 20.5 21.1716 20.5 22C20.5 22.8284 19.8284 23.5 19 23.5H13C12.1716 23.5 11.5 22.8284 11.5 22Z" fill="#889099"/>
</g>
<defs>
<clipPath id="clip0_1271_14511">
<rect width="32" height="32" fill="white"/>
</clipPath>
</defs>
</svg>
