<svg width="32" height="32" viewBox="0 0 32 32" fill="none" xmlns="http://www.w3.org/2000/svg">
<path fill-rule="evenodd" clip-rule="evenodd" d="M16 12C13.7909 12 12 13.7909 12 16C12 18.2091 13.7909 20 16 20C18.2091 20 20 18.2091 20 16C20 13.7909 18.2091 12 16 12ZM9 16C9 12.134 12.134 9 16 9C19.866 9 23 12.134 23 16C23 19.866 19.866 23 16 23C12.134 23 9 19.866 9 16Z" fill="#889099"/>
<path fill-rule="evenodd" clip-rule="evenodd" d="M11.8687 5.25822C10.745 5.68999 9.70949 6.30186 8.77863 7.05362L8.82495 10.0645C8.82973 10.3752 8.73792 10.6796 8.56222 10.9359C8.30324 11.3135 8.08143 11.6949 7.89323 12.0922C7.75908 12.3754 7.5396 12.6095 7.2656 12.7616L4.63714 14.2206C4.44876 15.3992 4.45553 16.6067 4.63841 17.7803L7.2656 19.2386C7.5396 19.3907 7.75908 19.6247 7.89323 19.9079C8.08143 20.3053 8.30324 20.6866 8.56222 21.0643C8.73792 21.3205 8.82973 21.625 8.82495 21.9357L8.77847 24.957C9.71887 25.7155 10.7597 26.3097 11.8639 26.7324L14.4525 25.1768C14.7171 25.0179 15.0242 24.9444 15.332 24.9664C15.7858 24.9988 16.2394 24.9988 16.6933 24.9664C17.0011 24.9444 17.3082 25.0179 17.5727 25.1768L20.1565 26.7294C21.2803 26.2977 22.3158 25.6858 23.2466 24.934L23.2003 21.9232C23.1955 21.6125 23.2873 21.308 23.463 21.0518C23.722 20.6741 23.9438 20.2928 24.132 19.8954C24.2662 19.6122 24.4857 19.3782 24.7596 19.2261L27.3881 17.7671C27.5765 16.5885 27.5697 15.381 27.3868 14.2074L24.7596 12.7491C24.4857 12.597 24.2662 12.3629 24.132 12.0797C23.9438 11.6824 23.722 11.301 23.463 10.9234C23.2873 10.6671 23.1955 10.3627 23.2003 10.052L23.2468 7.03071C22.3064 6.27216 21.2655 5.67797 20.1614 5.25531L17.5727 6.81081C17.3082 6.96976 17.0011 7.04325 16.6933 7.02127C16.2394 6.98885 15.7858 6.98885 15.332 7.02127C15.0242 7.04325 14.7171 6.96976 14.4525 6.81081L11.8687 5.25822ZM4.67972 13.9717C4.67925 13.9745 4.67877 13.9772 4.67827 13.98L4.67972 13.9717ZM13.2276 2.57479C12.5506 2.14751 11.7587 2.11492 11.0948 2.34583L11.0808 2.35079C9.43944 2.94 7.96158 3.82064 6.67371 4.90079L6.6737 4.90079L6.67142 4.90271C6.07928 5.40136 5.77513 6.11674 5.77513 6.83758L5.7753 6.86065L5.81822 9.65011C5.67248 9.88218 5.53479 10.1194 5.40547 10.3629L2.97215 11.7136L2.95592 11.7227C2.34091 12.0741 1.85646 12.6884 1.72274 13.4655C1.41627 15.1573 1.43169 16.8815 1.72196 18.5301C1.85457 19.3093 2.33971 19.9253 2.95592 20.2774L2.97215 20.2866L5.40547 21.6372C5.53479 21.8808 5.67248 22.118 5.81822 22.3501L5.77553 25.1245C5.75138 25.8901 6.09284 26.6238 6.66117 27.0993C7.98586 28.2144 9.47826 29.065 11.0675 29.6366L11.0823 29.6418C11.8075 29.894 12.5696 29.7898 13.1818 29.4399C13.1914 29.4345 13.2008 29.429 13.2102 29.4233L15.6053 27.9841C15.8769 27.9929 16.1484 27.9929 16.4199 27.9841L18.7976 29.4129C19.4747 29.8401 20.2665 29.8727 20.9304 29.6418L20.9444 29.6369C22.5858 29.0477 24.0637 28.167 25.3515 27.0869L25.3538 27.0849C25.946 26.5863 26.2501 25.8709 26.2501 25.1501L26.2499 25.127L26.207 22.3376C26.3528 22.1055 26.4905 21.8683 26.6198 21.6247L29.0531 20.2741L29.0693 20.2649C29.6843 19.9135 30.1688 19.2992 30.3025 18.5222C30.609 16.8305 30.5936 15.1062 30.3033 13.4577C30.1707 12.6784 29.6856 12.0624 29.0693 11.7102L29.0531 11.7011L26.6198 10.3504C26.4905 10.1069 26.3528 9.86968 26.207 9.63761L26.2497 6.86313C26.2739 6.09745 25.9323 5.36364 25.3638 4.88812C24.0392 3.77315 22.5469 2.92262 20.9578 2.35109L20.9429 2.34583C20.2178 2.09361 19.4557 2.19786 18.8434 2.54771C18.8339 2.55316 18.8244 2.5587 18.815 2.56435L16.4199 4.00358C16.1484 3.99475 15.8769 3.99475 15.6053 4.00358L13.2276 2.57479Z" fill="#889099"/>
</svg>
