<svg xmlns="http://www.w3.org/2000/svg" width="20" height="20" viewBox="0 0 32 32" >
<path fill-rule="evenodd" clip-rule="evenodd" d="M12.5 11.5C12.5 10.6716 13.1716 10 14 10H18C18.8284 10 19.5 10.6716 19.5 11.5C19.5 12.3284 18.8284 13 18 13H14C13.1716 13 12.5 12.3284 12.5 11.5Z" />
<path fill-rule="evenodd" clip-rule="evenodd" d="M4 19V7C4 5.89543 4.89543 5 6 5H26C27.1046 5 28 5.89543 28 7V19H30C30.5523 19 31 19.4477 31 20V23C31 25.2091 29.2091 27 27 27H5C2.79086 27 1 25.2091 1 23V20C1 19.4477 1.44772 19 2 19H4ZM7 19V8H25V19H7ZM28 22H4V23C4 23.5523 4.44772 24 5 24H27C27.5523 24 28 23.5523 28 23V22Z" />
</svg>