<svg width="32" height="32" viewBox="0 0 32 32" fill="none" xmlns="http://www.w3.org/2000/svg">
<path fill-rule="evenodd" clip-rule="evenodd" d="M16 5.5C10.201 5.5 5.5 10.201 5.5 16C5.5 21.799 10.201 26.5 16 26.5C21.799 26.5 26.5 21.799 26.5 16C26.5 10.201 21.799 5.5 16 5.5ZM2.5 16C2.5 8.54416 8.54416 2.5 16 2.5C23.4558 2.5 29.5 8.54416 29.5 16C29.5 23.4558 23.4558 29.5 16 29.5C8.54416 29.5 2.5 23.4558 2.5 16Z" fill="#889099"/>
<path fill-rule="evenodd" clip-rule="evenodd" d="M13.5 15C13.5 14.1716 14.1716 13.5 15 13.5H16C16.8284 13.5 17.5 14.1716 17.5 15V20.5854C18.0826 20.7913 18.5 21.3469 18.5 22C18.5 22.8284 17.8284 23.5 17 23.5H16C15.1716 23.5 14.5 22.8284 14.5 22V16.4146C13.9174 16.2087 13.5 15.6531 13.5 15Z" fill="#889099"/>
<path d="M16 12C17.1046 12 18 11.1046 18 10C18 8.89543 17.1046 8 16 8C14.8954 8 14 8.89543 14 10C14 11.1046 14.8954 12 16 12Z" fill="#889099"/>
</svg>
