<svg width="32" height="32" viewBox="0 0 32 32" fill="none" xmlns="http://www.w3.org/2000/svg">
<path fill-rule="evenodd" clip-rule="evenodd" d="M20.6849 0.664565C21.2815 0.970744 21.6024 1.6357 21.4709 2.29325L19.7211 11.0425L26.5267 13.5946C26.9957 13.7704 27.3459 14.1687 27.4603 14.6563C27.5748 15.1439 27.4383 15.6564 27.0966 16.0226L13.0966 31.0226C12.6391 31.5128 11.9117 31.6398 11.3151 31.3336C10.7185 31.0274 10.3976 30.3625 10.5292 29.7049L12.279 20.9557L5.47334 18.4036C5.0044 18.2277 4.65416 17.8294 4.53971 17.3418C4.42527 16.8543 4.56172 16.3417 4.90344 15.9756L18.9034 0.975601C19.361 0.485375 20.0883 0.358385 20.6849 0.664565ZM8.62745 16.3824L14.5267 18.5946C15.2153 18.8528 15.6151 19.5721 15.4709 20.2933L14.5065 25.1152L23.3726 15.6158L17.4733 13.4036C16.7848 13.1454 16.3849 12.426 16.5292 11.7049L17.4935 6.88299L8.62745 16.3824Z" fill="#889099"/>
</svg>
