<svg width="32" height="32" viewBox="0 0 32 32" fill="none" xmlns="http://www.w3.org/2000/svg">
<path fill-rule="evenodd" clip-rule="evenodd" d="M9.5 8C9.5 7.17157 10.1716 6.5 11 6.5H27C27.8284 6.5 28.5 7.17157 28.5 8C28.5 8.82843 27.8284 9.5 27 9.5H11C10.1716 9.5 9.5 8.82843 9.5 8Z" fill="#889099"/>
<path fill-rule="evenodd" clip-rule="evenodd" d="M9.50098 16C9.50098 15.1716 10.1725 14.5 11.001 14.5H27.0002C27.8286 14.5 28.5002 15.1716 28.5002 16C28.5002 16.8284 27.8286 17.5 27.0002 17.5H11.001C10.1725 17.5 9.50098 16.8284 9.50098 16Z" fill="#889099"/>
<path fill-rule="evenodd" clip-rule="evenodd" d="M9.50098 24C9.50098 23.1716 10.1725 22.5 11.001 22.5H27.0002C27.8286 22.5 28.5002 23.1716 28.5002 24C28.5002 24.8284 27.8286 25.5 27.0002 25.5H11.001C10.1725 25.5 9.50098 24.8284 9.50098 24Z" fill="#889099"/>
<path d="M5.5 18C6.60457 18 7.5 17.1046 7.5 16C7.5 14.8954 6.60457 14 5.5 14C4.39543 14 3.5 14.8954 3.5 16C3.5 17.1046 4.39543 18 5.5 18Z" fill="#889099"/>
<path d="M5.5 10C6.60457 10 7.5 9.10457 7.5 8C7.5 6.89543 6.60457 6 5.5 6C4.39543 6 3.5 6.89543 3.5 8C3.5 9.10457 4.39543 10 5.5 10Z" fill="#889099"/>
<path d="M5.5 26C6.60457 26 7.5 25.1046 7.5 24C7.5 22.8954 6.60457 22 5.5 22C4.39543 22 3.5 22.8954 3.5 24C3.5 25.1046 4.39543 26 5.5 26Z" fill="#889099"/>
</svg>
