<svg width="32" height="32" viewBox="0 0 32 32" fill="none" xmlns="http://www.w3.org/2000/svg">
<path fill-rule="evenodd" clip-rule="evenodd" d="M27.5 14.5C28.3284 14.5 29 15.1716 29 16V22C29 22.8284 28.3284 23.5 27.5 23.5C26.6716 23.5 26 22.8284 26 22V16C26 15.1716 26.6716 14.5 27.5 14.5Z" fill="#889099"/>
<path fill-rule="evenodd" clip-rule="evenodd" d="M23 19C23 18.1716 23.6716 17.5 24.5 17.5H30.5C31.3284 17.5 32 18.1716 32 19C32 19.8284 31.3284 20.5 30.5 20.5H24.5C23.6716 20.5 23 19.8284 23 19Z" fill="#889099"/>
<path fill-rule="evenodd" clip-rule="evenodd" d="M10 3C10.8284 3 11.5 3.67157 11.5 4.5V9.5C11.5 10.3284 10.8284 11 10 11C9.17157 11 8.5 10.3284 8.5 9.5V4.5C8.5 3.67157 9.17157 3 10 3Z" fill="#889099"/>
<path fill-rule="evenodd" clip-rule="evenodd" d="M6 7C6 6.17157 6.67157 5.5 7.5 5.5H12.5C13.3284 5.5 14 6.17157 14 7C14 7.82843 13.3284 8.5 12.5 8.5H7.5C6.67157 8.5 6 7.82843 6 7Z" fill="#889099"/>
<path fill-rule="evenodd" clip-rule="evenodd" d="M20.5 22C21.3284 22 22 22.6716 22 23.5V27.5C22 28.3284 21.3284 29 20.5 29C19.6716 29 19 28.3284 19 27.5V23.5C19 22.6716 19.6716 22 20.5 22Z" fill="#889099"/>
<path fill-rule="evenodd" clip-rule="evenodd" d="M17 25.5C17 24.6716 17.6716 24 18.5 24H22.5C23.3284 24 24 24.6716 24 25.5C24 26.3284 23.3284 27 22.5 27H18.5C17.6716 27 17 26.3284 17 25.5Z" fill="#889099"/>
<path fill-rule="evenodd" clip-rule="evenodd" d="M6.12155 24L8.00023 25.8787L25.8789 8L24.0002 6.12132L6.12155 24ZM3.64667 25.7678C2.67036 24.7915 2.67036 23.2085 3.64667 22.2322L22.2325 3.64645C23.2088 2.67014 24.7917 2.67014 25.768 3.64645L28.3538 6.23223C29.3301 7.20854 29.3301 8.79146 28.3538 9.76777L9.76799 28.3536C8.79168 29.3299 7.20877 29.3299 6.23246 28.3536L3.64667 25.7678Z" fill="#889099"/>
<path fill-rule="evenodd" clip-rule="evenodd" d="M16.9393 8.93934C17.5251 8.35355 18.4749 8.35355 19.0607 8.93934L23.0607 12.9393C23.6464 13.5251 23.6464 14.4749 23.0607 15.0607C22.4749 15.6464 21.5251 15.6464 20.9393 15.0607L16.9393 11.0607C16.3536 10.4749 16.3536 9.52513 16.9393 8.93934Z" fill="#889099"/>
</svg>
