<svg xmlns="http://www.w3.org/2000/svg" width="20" height="20" viewBox="0 0 32 32" >
<path fill-rule="evenodd" clip-rule="evenodd" d="M4.5 21.0002L4.5 15.1253C4.5 8.8144 9.55221 3.54417 15.9141 3.50032C17.4314 3.48899 18.936 3.77805 20.3411 4.35083C21.7463 4.92366 23.0243 5.76894 24.1013 6.83795C25.1783 7.90696 26.0331 9.17856 26.6164 10.5795C27.1997 11.9803 27.5 13.4828 27.5 15.0003L27.5 26.0003C27.5 26.6633 27.2366 27.2992 26.7678 27.7681C26.2989 28.2369 25.663 28.5003 25 28.5003L20 28.5003C19.337 28.5003 18.7011 28.2369 18.2322 27.768C17.7634 27.2992 17.5 26.6633 17.5 26.0003L17.5 15.0003C17.5 14.6025 17.342 14.2209 17.0607 13.9396C16.7794 13.6583 16.3978 13.5003 16 13.5003C15.6022 13.5003 15.2206 13.6583 14.9393 13.9396C14.658 14.2209 14.5 14.6025 14.5 15.0003L14.5 26.0003C14.5 26.6633 14.2366 27.2992 13.7678 27.768C13.2989 28.2369 12.663 28.5003 12 28.5003L7 28.5003C6.33696 28.5003 5.70107 28.2369 5.23223 27.768C4.76338 27.2992 4.5 26.6633 4.5 26.0003L4.5 21.0002ZM15.9363 6.50024C17.0578 6.49183 18.17 6.70548 19.2086 7.12888C20.2473 7.55227 21.1919 8.17705 21.9879 8.96718C22.784 9.75732 23.4158 10.6972 23.8469 11.7326C24.2781 12.7681 24.5 13.8787 24.5 15.0003L24.5 19.5002L20.5 19.5002L20.5 15.0003C20.5 13.8068 20.0259 12.6622 19.182 11.8183C18.3381 10.9744 17.1935 10.5003 16 10.5003C14.8065 10.5003 13.6619 10.9744 12.818 11.8183C11.9741 12.6622 11.5 13.8068 11.5 15.0003L11.5 19.5002L7.5 19.5002L7.5 15.1253C7.5 10.4115 11.2726 6.53196 15.9352 6.50025L15.9363 6.50024ZM11.5 22.5002L11.5 25.5003L7.5 25.5003L7.5 22.5002L11.5 22.5002ZM20.5 22.5002L20.5 25.5003L24.5 25.5003L24.5 22.5002L20.5 22.5002Z" />
</svg>