<svg width="32" height="32" viewBox="0 0 32 32" fill="none" xmlns="http://www.w3.org/2000/svg">
<path fill-rule="evenodd" clip-rule="evenodd" d="M14.4995 5.5C9.52895 5.5 5.49951 9.52944 5.49951 14.5C5.49951 19.4706 9.52895 23.5 14.4995 23.5C19.4701 23.5 23.4995 19.4706 23.4995 14.5C23.4995 9.52944 19.4701 5.5 14.4995 5.5ZM2.49951 14.5C2.49951 7.87258 7.8721 2.5 14.4995 2.5C21.1269 2.5 26.4995 7.87258 26.4995 14.5C26.4995 21.1274 21.1269 26.5 14.4995 26.5C7.8721 26.5 2.49951 21.1274 2.49951 14.5Z" fill="#889099"/>
<path fill-rule="evenodd" clip-rule="evenodd" d="M20.8632 20.8644C21.449 20.2786 22.3987 20.2786 22.9845 20.8644L29.0596 26.9395C29.6453 27.5252 29.6453 28.475 29.0596 29.0608C28.4738 29.6466 27.524 29.6466 26.9382 29.0608L20.8632 22.9857C20.2774 22.3999 20.2774 21.4502 20.8632 20.8644Z" fill="#889099"/>
</svg>
