<svg width="32" height="32" viewBox="0 0 32 32" fill="none" xmlns="http://www.w3.org/2000/svg">
<path fill-rule="evenodd" clip-rule="evenodd" d="M13.4552 4.63631C13.6561 5.44 13.1675 6.2544 12.3638 6.45532L5.5 8.17128V23.0789L11.6362 21.5449C12.4399 21.344 13.2543 21.8326 13.4552 22.6363C13.6561 23.44 13.1675 24.2544 12.3638 24.4553L4.3638 26.4553C3.91569 26.5674 3.44096 26.4667 3.07688 26.1824C2.71281 25.8982 2.5 25.462 2.5 25.0001V7.00011C2.5 6.31181 2.96845 5.71183 3.6362 5.5449L11.6362 3.5449C12.4399 3.34397 13.2543 3.83261 13.4552 4.63631Z" fill="#889099"/>
<path fill-rule="evenodd" clip-rule="evenodd" d="M11.2114 3.72403C11.6536 3.45072 12.2058 3.42587 12.6708 3.65836L20.6708 7.65836C21.179 7.91245 21.5 8.43184 21.5 9V27C21.5 27.5199 21.2308 28.0027 20.7886 28.276C20.3464 28.5493 19.7942 28.5741 19.3292 28.3416L11.3292 24.3416C10.821 24.0876 10.5 23.5682 10.5 23V5C10.5 4.48014 10.7692 3.99734 11.2114 3.72403ZM13.5 7.42705V22.073L18.5 24.573V9.92705L13.5 7.42705Z" fill="#889099"/>
<path fill-rule="evenodd" clip-rule="evenodd" d="M28.923 5.81771C29.2871 6.10197 29.4999 6.53811 29.4999 7.00001V25C29.4999 25.6883 29.0314 26.2883 28.3637 26.4552L20.3637 28.4552C19.56 28.6562 18.7456 28.1675 18.5447 27.3638C18.3437 26.5601 18.8324 25.7457 19.6361 25.5448L26.4999 23.8288V8.92118L20.3637 10.4552C19.56 10.6562 18.7456 10.1675 18.5447 9.36382C18.3437 8.56012 18.8324 7.74572 19.6361 7.5448L27.6361 5.5448C28.0842 5.43277 28.5589 5.53344 28.923 5.81771Z" fill="#889099"/>
</svg>
