<svg width="32" height="32" viewBox="0 0 32 32" fill="none" xmlns="http://www.w3.org/2000/svg">
<path fill-rule="evenodd" clip-rule="evenodd" d="M17.9654 4.46356C18.903 3.52645 20.1743 3 21.5 3C22.8261 3 24.0979 3.52678 25.0355 4.46447C25.9732 5.40215 26.5 6.67392 26.5 8C26.5 9.32609 25.9732 10.5979 25.0355 11.5355L25.015 11.5557L13.0394 23.0802C12.4425 23.6546 11.4929 23.6364 10.9184 23.0395C10.344 22.4426 10.3622 21.493 10.9592 20.9186L22.923 9.40538C23.2926 9.03118 23.5 8.52628 23.5 8C23.5 7.46957 23.2893 6.96086 22.9142 6.58579C22.5391 6.21071 22.0304 6 21.5 6C20.9696 6 20.4609 6.21071 20.0858 6.58579L7.81802 18.818C7.81777 18.8183 7.81753 18.8185 7.81728 18.8188C6.97383 19.6626 6.5 20.8069 6.5 22C6.5 23.1935 6.97411 24.3381 7.81802 25.182C8.66193 26.0259 9.80653 26.5 11 26.5C12.1935 26.5 13.3381 26.0259 14.182 25.182L24.4393 14.938C25.0255 14.3526 25.9752 14.3533 26.5606 14.9394C27.146 15.5256 27.1454 16.4753 26.5592 17.0607L16.3033 27.3033C16.3031 27.3035 16.3035 27.3031 16.3033 27.3033C14.8968 28.7094 12.9888 29.5 11 29.5C9.01088 29.5 7.10322 28.7098 5.6967 27.3033C4.29018 25.8968 3.5 23.9891 3.5 22C3.5 20.0109 4.29018 18.1032 5.6967 16.6967L17.9645 4.46447C17.9648 4.46417 17.9651 4.46387 17.9654 4.46356Z" fill="#889099"/>
</svg>
