<svg xmlns="http://www.w3.org/2000/svg" width="20" height="20" viewBox="0 0 32 32" >
  <path d="M20.0607 3.93934C19.4749 3.35355 18.5251 3.35355 17.9393 3.93934C17.3536 4.52513 17.3536 5.47487 17.9393 6.06066L23.8787 12H4.5C3.67157 12 3 12.6716 3 13.5C3 14.3284 3.67157 15 4.5 15H26.8964C28.4555 15 29.2363 13.115 28.1339 12.0126L20.0607 3.93934Z" />
  <path d="M5.10361 17C3.54453 17 2.76373 18.885 3.86617 19.9874L11.9394 28.0607C12.5252 28.6464 13.4749 28.6464 14.0607 28.0607C14.6465 27.4749 14.6465 26.5251 14.0607 25.9393L8.12137 20H27.5001C28.3285 20 29.0001 19.3284 29.0001 18.5C29.0001 17.6716 28.3285 17 27.5001 17H5.10361Z" />
</svg>