<svg width="32" height="32" viewBox="0 0 32 32" fill="none" xmlns="http://www.w3.org/2000/svg">
<path fill-rule="evenodd" clip-rule="evenodd" d="M21 6.12141L6.5 20.6214V25.5001H11.3787L25.8787 11.0001L21 6.12141ZM6.3542 20.7672L6.35355 20.7679L6.00001 20.4143L6.35355 20.7679C6.35377 20.7676 6.35398 20.7674 6.3542 20.7672ZM19.2322 3.64654C19.7011 3.1777 20.337 2.91431 21 2.91431C21.663 2.91431 22.2989 3.1777 22.7678 3.64654L28.3536 9.23233L27.2929 10.293L28.3536 9.23233C28.8224 9.70117 29.0858 10.3371 29.0858 11.0001C29.0858 11.6631 28.8224 12.299 28.3536 12.7679L13.0607 28.0608C12.7794 28.3421 12.3978 28.5001 12 28.5001H6C5.33696 28.5001 4.70108 28.2367 4.23223 27.7679C3.76339 27.299 3.5 26.6631 3.5 26.0001V20.4143C3.5 20.086 3.56466 19.7609 3.6903 19.4576C3.81594 19.1543 4.00009 18.8787 4.23223 18.6465L19.2322 3.64654L20.2929 4.7072L19.2322 3.64654Z" fill="#889099"/>
<path fill-rule="evenodd" clip-rule="evenodd" d="M15.9393 6.93934C16.5251 6.35355 17.4749 6.35355 18.0607 6.93934L25.0607 13.9393C25.6464 14.5251 25.6464 15.4749 25.0607 16.0607C24.4749 16.6464 23.5251 16.6464 22.9393 16.0607L15.9393 9.06066C15.3536 8.47487 15.3536 7.52513 15.9393 6.93934Z" fill="#889099"/>
</svg>
