<svg xmlns="http://www.w3.org/2000/svg" width="20" height="20" viewBox="0 0 32 32">
  <path fill-rule="evenodd" clip-rule="evenodd" d="M6 3.5C4.61929 3.5 3.5 4.61929 3.5 6V26C3.5 27.3807 4.61929 28.5 6 28.5H26C27.3807 28.5 28.5 27.3807 28.5 26V6C28.5 4.61929 27.3807 3.5 26 3.5H6ZM6.5 13.4788V6.5H13.4788L6.5 13.4788ZM6.5 23.3782L23.3782 6.5H17.7203C17.7091 6.51198 17.6976 6.52382 17.6859 6.53551L6.5 17.7214V23.3782ZM25.5 8.62085L8.62085 25.5H14.2779L25.464 14.3139C25.4759 14.302 25.4879 14.2904 25.5 14.279V8.62085ZM25.5 25.5H18.5205L25.5 18.5205V25.5Z" />
</svg>