<svg xmlns="http://www.w3.org/2000/svg" width="20" height="20" viewBox="0 0 32 32">
<path fill-rule="evenodd" clip-rule="evenodd" d="M16.5 2.49609C9.04416 2.49609 3 8.54025 3 15.9961C3 23.4519 9.04416 29.4961 16.5 29.4961C23.9558 29.4961 30 23.4519 30 15.9961C30 8.54025 23.9558 2.49609 16.5 2.49609ZM6 15.9961C6 10.1971 10.701 5.49609 16.5 5.49609C22.299 5.49609 27 10.1971 27 15.9961C27 21.2497 23.1416 25.6022 18.1039 26.3744V23.7267C19.9682 23.0677 21.3039 21.2898 21.3039 19.1998V15.3998C21.3039 14.8475 20.8562 14.3998 20.3039 14.3998H19.7039V12.2C19.7039 11.6477 19.2562 11.2 18.7039 11.2C18.1516 11.2 17.7039 11.6477 17.7039 12.2V14.3998H15.3039V12.2C15.3039 11.6477 14.8562 11.2 14.3039 11.2C13.7516 11.2 13.3039 11.6477 13.3039 12.2V14.3998H12.7039C12.1516 14.3998 11.7039 14.8475 11.7039 15.3998V19.1998C11.7039 21.2898 13.0396 23.0677 14.9039 23.7267V26.3756C9.8624 25.6067 6 21.2525 6 15.9961Z" />
</svg>