<svg width="32" height="32" viewBox="0 0 32 32" fill="none" xmlns="http://www.w3.org/2000/svg">
<path fill-rule="evenodd" clip-rule="evenodd" d="M6.49902 5C6.49902 4.17157 7.1706 3.5 7.99902 3.5H23.999C24.8274 3.5 25.499 4.17157 25.499 5V10C25.499 10.8284 24.8274 11.5 23.999 11.5H7.99902C7.1706 11.5 6.49902 10.8284 6.49902 10V5ZM9.49902 6.5V8.5H22.499V6.5H9.49902Z" fill="#889099"/>
<path fill-rule="evenodd" clip-rule="evenodd" d="M6.49902 19.5C6.49902 18.6716 7.1706 18 7.99902 18H23.999C24.8274 18 25.499 18.6716 25.499 19.5V27.5C25.499 28.3284 24.8274 29 23.999 29H7.99902C7.1706 29 6.49902 28.3284 6.49902 27.5V19.5ZM9.49902 21V26H22.499V21H9.49902Z" fill="#889099"/>
<path fill-rule="evenodd" clip-rule="evenodd" d="M5.66569 11.5C5.18219 11.5 4.99902 11.8346 4.99902 12V20.5H7.99902C8.82745 20.5 9.49902 21.1716 9.49902 22C9.49902 22.8284 8.82745 23.5 7.99902 23.5H3.49902C2.6706 23.5 1.99902 22.8284 1.99902 22V12C1.99902 9.95622 3.75595 8.5 5.66569 8.5H26.3324C28.2421 8.5 29.999 9.95622 29.999 12V22C29.999 22.8284 29.3274 23.5 28.499 23.5H23.999C23.1706 23.5 22.499 22.8284 22.499 22C22.499 21.1716 23.1706 20.5 23.999 20.5H26.999V12C26.999 11.8346 26.8159 11.5 26.3324 11.5H5.66569Z" fill="#889099"/>
<path d="M23.5 16.5C24.6046 16.5 25.5 15.6046 25.5 14.5C25.5 13.3954 24.6046 12.5 23.5 12.5C22.3954 12.5 21.5 13.3954 21.5 14.5C21.5 15.6046 22.3954 16.5 23.5 16.5Z" fill="#889099"/>
</svg>
