<svg width="32" height="32" viewBox="0 0 32 32" fill="none" xmlns="http://www.w3.org/2000/svg">
<path fill-rule="evenodd" clip-rule="evenodd" d="M16 5.50049C10.201 5.50049 5.5 10.2015 5.5 16.0005C5.5 21.7995 10.201 26.5005 16 26.5005C21.799 26.5005 26.5 21.7995 26.5 16.0005C26.5 10.2015 21.799 5.50049 16 5.50049ZM2.5 16.0005C2.5 8.54464 8.54416 2.50049 16 2.50049C23.4558 2.50049 29.5 8.54464 29.5 16.0005C29.5 23.4563 23.4558 29.5005 16 29.5005C8.54416 29.5005 2.5 23.4563 2.5 16.0005Z" fill="#889099"/>
<path fill-rule="evenodd" clip-rule="evenodd" d="M11.4042 11.4044C11.99 10.8186 12.9397 10.8186 13.5255 11.4044L20.5966 18.4755C21.1824 19.0613 21.1824 20.011 20.5966 20.5968C20.0108 21.1826 19.061 21.1826 18.4753 20.5968L11.4042 13.5257C10.8184 12.94 10.8184 11.9902 11.4042 11.4044Z" fill="#889099"/>
</svg>
