<svg width="32" height="32" viewBox="0 0 32 32" fill="none" xmlns="http://www.w3.org/2000/svg">
<path d="M16 3C13.4288 3 10.9154 3.76244 8.77759 5.1909C6.63975 6.61935 4.97351 8.64968 3.98957 11.0251C3.00563 13.4006 2.74819 16.0144 3.2498 18.5362C3.75141 21.0579 4.98954 23.3743 6.80762 25.1924C8.6257 27.0105 10.9421 28.2486 13.4638 28.7502C15.9856 29.2518 18.5995 28.9944 20.9749 28.0104C23.3503 27.0265 25.3807 25.3603 26.8091 23.2224C28.2376 21.0846 29 18.5712 29 16C28.9961 12.5534 27.6252 9.24905 25.1881 6.81192C22.751 4.37479 19.4466 3.0039 16 3ZM16.0001 24C15.7034 24 15.4134 23.9121 15.1667 23.7472C14.92 23.5824 14.7278 23.3482 14.6143 23.0741C14.5007 22.8 14.471 22.4984 14.5289 22.2074C14.5868 21.9164 14.7296 21.6492 14.9394 21.4394C15.1492 21.2296 15.4165 21.0867 15.7074 21.0289C15.9984 20.971 16.3 21.0007 16.5741 21.1142C16.8482 21.2278 17.0825 21.42 17.2473 21.6667C17.4121 21.9134 17.5001 22.2034 17.5001 22.5C17.5001 22.8979 17.342 23.2794 17.0607 23.5607C16.7794 23.842 16.3979 24 16.0001 24ZM17 17.8887V18.0006C17 18.2658 16.8947 18.5202 16.7071 18.7077C16.5196 18.8953 16.2652 19.0006 16 19.0006C15.7348 19.0006 15.4804 18.8953 15.2929 18.7077C15.1054 18.5202 15 18.2658 15 18.0006V17.0006C15 16.7354 15.1054 16.4811 15.2929 16.2935C15.4805 16.106 15.7348 16.0006 16 16.0006C16.4945 16.0006 16.9778 15.854 17.3889 15.5793C17.8001 15.3046 18.1205 14.9141 18.3097 14.4573C18.4989 14.0005 18.5484 13.4978 18.452 13.0129C18.3555 12.5279 18.1174 12.0825 17.7678 11.7328C17.4181 11.3832 16.9727 11.1451 16.4877 11.0486C16.0028 10.9522 15.5001 11.0017 15.0433 11.1909C14.5865 11.3801 14.196 11.7006 13.9213 12.1117C13.6466 12.5228 13.5 13.0062 13.5 13.5006C13.5 13.7658 13.3947 14.0202 13.2071 14.2077C13.0196 14.3953 12.7652 14.5006 12.5 14.5006C12.2348 14.5006 11.9804 14.3953 11.7929 14.2077C11.6054 14.0202 11.5 13.7658 11.5 13.5006C11.5001 12.6535 11.7393 11.8237 12.1901 11.1065C12.6409 10.3893 13.285 9.8139 14.0482 9.44649C14.8115 9.07908 15.663 8.93457 16.5047 9.02958C17.3465 9.12459 18.1443 9.45526 18.8065 9.98356C19.4687 10.5119 19.9683 11.2163 20.2478 12.016C20.5274 12.8156 20.5756 13.6779 20.3869 14.5037C20.1982 15.3295 19.7802 16.0853 19.1811 16.6841C18.5819 17.2829 17.8259 17.7004 17 17.8887Z" fill="#889099"/>
</svg>
