<svg width="32" height="32" viewBox="0 0 32 32" fill="none" xmlns="http://www.w3.org/2000/svg">
<path fill-rule="evenodd" clip-rule="evenodd" d="M31.5669 20.8922C31.9811 21.6096 31.7353 22.527 31.0179 22.9412L25.8217 25.9412C25.1043 26.3554 24.1869 26.1096 23.7727 25.3922L20.7727 20.196C20.3585 19.4786 20.6043 18.5612 21.3217 18.147C22.0391 17.7328 22.9565 17.9786 23.3707 18.696L25.6207 22.5931L29.5179 20.3431C30.2353 19.9289 31.1527 20.1747 31.5669 20.8922Z" fill="#889099"/>
<path fill-rule="evenodd" clip-rule="evenodd" d="M24.227 11.25C23.6033 10.1696 22.7728 9.22259 21.783 8.46312C20.7933 7.70366 19.6636 7.14657 18.4586 6.82368C17.6584 6.60927 17.1835 5.78677 17.3979 4.98657C17.6123 4.18637 18.4348 3.71149 19.235 3.92591C20.8206 4.35076 22.307 5.08377 23.6093 6.08306C24.9116 7.08236 26.0044 8.32838 26.8251 9.74998C27.6459 11.1716 28.1786 12.7409 28.3929 14.3684C28.6071 15.9959 28.4987 17.6496 28.0739 19.2352L26.521 25.0308C26.3065 25.831 25.484 26.3058 24.6838 26.0914C23.8836 25.877 23.4088 25.0545 23.6232 24.2543L25.1761 18.4588C25.499 17.2537 25.5814 15.9969 25.4185 14.76C25.2557 13.5231 24.8508 12.3304 24.227 11.25Z" fill="#889099"/>
<path fill-rule="evenodd" clip-rule="evenodd" d="M6.17752 6.05884C6.89496 5.64462 7.81235 5.89044 8.22656 6.60788L11.2266 11.804C11.6408 12.5215 11.395 13.4389 10.6775 13.8531C9.96009 14.2673 9.0427 14.0215 8.62849 13.304L6.37849 9.40691L2.48137 11.6569C1.76393 12.0711 0.846547 11.8253 0.432333 11.1079C0.0181199 10.3904 0.263933 9.47305 0.981372 9.05884L6.17752 6.05884Z" fill="#889099"/>
<path fill-rule="evenodd" clip-rule="evenodd" d="M7.31575 5.90899C8.11595 6.1234 8.59083 6.94591 8.37641 7.7461L6.8235 13.5417C6.50061 14.7467 6.41823 16.0036 6.58107 17.2404C6.74391 18.4773 7.14877 19.67 7.77255 20.7504C8.39633 21.8309 9.22681 22.7778 10.2166 23.5373C11.2063 24.2968 12.336 24.8538 13.541 25.1767C14.3412 25.3911 14.8161 26.2137 14.6017 27.0139C14.3873 27.8141 13.5648 28.2889 12.7646 28.0745C11.179 27.6497 9.69258 26.9167 8.39028 25.9174C7.08797 24.9181 5.99524 23.672 5.17448 22.2504C4.35371 20.8288 3.82099 19.2595 3.60673 17.632C3.39247 16.0045 3.50086 14.3508 3.92572 12.7652L5.47864 6.96965C5.69305 6.16945 6.51555 5.69457 7.31575 5.90899Z" fill="#889099"/>
</svg>
