<svg xmlns="http://www.w3.org/2000/svg" width="20" height="20" viewBox="0 0 32 32" >
<path d="M16.0002 10.5C14.9124 10.5 13.849 10.8225 12.9446 11.4269C12.0401 12.0312 11.3352 12.8902 10.9189 13.8952C10.5026 14.9002 10.3937 16.0061 10.6059 17.073C10.8181 18.1399 11.3419 19.1199 12.1111 19.8891C12.8803 20.6583 13.8603 21.1821 14.9272 21.3943C15.9941 21.6065 17.1 21.4976 18.105 21.0813C19.11 20.665 19.9689 19.9601 20.5733 19.0556C21.1776 18.1511 21.5002 17.0878 21.5002 16C21.4986 14.5418 20.9186 13.1438 19.8875 12.1127C18.8564 11.0816 17.4584 10.5016 16.0002 10.5ZM16.0002 18.5C15.5058 18.5 15.0224 18.3534 14.6113 18.0787C14.2002 17.8039 13.8797 17.4135 13.6905 16.9567C13.5013 16.4999 13.4518 15.9972 13.5482 15.5123C13.6447 15.0273 13.8828 14.5818 14.2324 14.2322C14.5821 13.8826 15.0275 13.6445 15.5125 13.548C15.9974 13.4516 16.5001 13.5011 16.9569 13.6903C17.4137 13.8795 17.8042 14.1999 18.0789 14.6111C18.3536 15.0222 18.5002 15.5055 18.5002 16C18.5002 16.663 18.2368 17.2989 17.768 17.7677C17.2991 18.2366 16.6633 18.5 16.0002 18.5ZM25.674 20.0875C25.223 21.1536 24.5987 22.1377 23.8265 23C23.5612 23.2965 23.1891 23.4756 22.7919 23.4977C22.3946 23.5199 22.0049 23.3833 21.7083 23.1181C21.4118 22.8529 21.2327 22.4807 21.2106 22.0835C21.1884 21.6863 21.325 21.2965 21.5902 21C22.8222 19.6259 23.5035 17.8454 23.5035 16C23.5035 14.1545 22.8222 12.374 21.5902 11C21.325 10.7034 21.1884 10.3137 21.2106 9.91645C21.2327 9.51922 21.4118 9.14707 21.7083 8.88185C22.0049 8.61664 22.3946 8.48008 22.7919 8.50224C23.1891 8.52439 23.5612 8.70343 23.8265 8.99998C25.1525 10.4836 26.0301 12.3132 26.3572 14.276C26.6843 16.2387 26.4473 18.2541 25.674 20.0875ZM10.4102 21C10.6754 21.2965 10.812 21.6863 10.7898 22.0835C10.7677 22.4807 10.5886 22.8529 10.2921 23.1181C9.99554 23.3833 9.60578 23.5199 9.20856 23.4977C8.81133 23.4756 8.43918 23.2965 8.17396 23C6.45058 21.0757 5.49763 18.5832 5.49763 16C5.49763 13.4167 6.45058 10.9243 8.17396 8.99998C8.43918 8.70343 8.81133 8.52439 9.20856 8.50224C9.60578 8.48008 9.99554 8.61664 10.2921 8.88185C10.5886 9.14707 10.7677 9.51922 10.7898 9.91645C10.812 10.3137 10.6754 10.7034 10.4102 11C9.17826 12.374 8.49696 14.1545 8.49696 16C8.49696 17.8454 9.17826 19.6259 10.4102 21ZM31.5002 16C31.5051 20.057 29.9144 23.9531 27.0715 26.8475C26.9356 26.9959 26.7713 27.1155 26.5882 27.1991C26.4052 27.2828 26.2072 27.3287 26.0061 27.3342C25.8049 27.3397 25.6047 27.3047 25.4174 27.2313C25.23 27.1578 25.0594 27.0474 24.9156 26.9066C24.7718 26.7659 24.6578 26.5976 24.5804 26.4119C24.5029 26.2261 24.4637 26.0267 24.4649 25.8255C24.4662 25.6242 24.5079 25.4253 24.5876 25.2406C24.6673 25.0558 24.7834 24.889 24.929 24.75C27.2229 22.4152 28.5082 19.2731 28.5082 16C28.5082 12.7269 27.2229 9.58472 24.929 7.24998C24.6505 6.96586 24.4963 6.58276 24.5003 6.18495C24.5042 5.78714 24.6661 5.4072 24.9502 5.12873C25.2343 4.85025 25.6174 4.69604 26.0152 4.70003C26.413 4.70401 26.793 4.86586 27.0715 5.14998C29.915 8.04492 31.5057 11.9421 31.5002 16ZM7.07146 24.75C7.34994 25.0341 7.50415 25.4172 7.50016 25.815C7.49618 26.2128 7.33432 26.5928 7.05021 26.8712C6.7661 27.1497 6.383 27.3039 5.98518 27.2999C5.58737 27.2959 5.20744 27.1341 4.92896 26.85C2.08718 23.9545 0.495117 20.0595 0.495117 16.0025C0.495117 11.9455 2.08718 8.05044 4.92896 5.15498C5.21129 4.89266 5.58375 4.74908 5.9691 4.75399C6.35444 4.75891 6.72312 4.91196 6.99866 5.18139C7.2742 5.45082 7.43547 5.81597 7.44903 6.20111C7.46258 6.58626 7.32738 6.96184 7.07146 7.24998C4.77755 9.58472 3.49223 12.7269 3.49223 16C3.49223 19.2731 4.77755 22.4152 7.07146 24.75Z" />
</svg>