<svg width="32" height="32" viewBox="0 0 32 32" fill="none" xmlns="http://www.w3.org/2000/svg">
<path fill-rule="evenodd" clip-rule="evenodd" d="M20.6909 9.6892C21.2768 9.10349 22.2266 9.10362 22.8123 9.68948L28.0609 14.9395C28.6465 15.5252 28.6465 16.4748 28.0609 17.0605L22.8123 22.3105C22.2266 22.8964 21.2768 22.8965 20.6909 22.3108C20.1051 21.7251 20.105 20.7753 20.6907 20.1895L24.879 16L20.6907 11.8105C20.105 11.2247 20.1051 10.2749 20.6909 9.6892Z" fill="#889099"/>
<path fill-rule="evenodd" clip-rule="evenodd" d="M11.5 16C11.5 15.1716 12.1716 14.5 13 14.5H26.9963C27.8247 14.5 28.4963 15.1716 28.4963 16C28.4963 16.8284 27.8247 17.5 26.9963 17.5H13C12.1716 17.5 11.5 16.8284 11.5 16Z" fill="#889099"/>
<path fill-rule="evenodd" clip-rule="evenodd" d="M6.5 6.5H13C13.8284 6.5 14.5 5.82843 14.5 5C14.5 4.17157 13.8284 3.5 13 3.5H6C5.33696 3.5 4.70107 3.76339 4.23223 4.23223C3.76339 4.70107 3.5 5.33696 3.5 6V26C3.5 26.663 3.76339 27.2989 4.23223 27.7678C4.70108 28.2366 5.33696 28.5 6 28.5H13C13.8284 28.5 14.5 27.8284 14.5 27C14.5 26.1716 13.8284 25.5 13 25.5H6.5V6.5Z" fill="#889099"/>
</svg>
