<svg xmlns="http://www.w3.org/2000/svg" width="20" height="20" viewBox="0 0 32 32" >
  <path fill-rule="evenodd" clip-rule="evenodd" d="M3.5 8.5C3.5 7.67157 4.17157 7 5 7H27C27.8284 7 28.5 7.67157 28.5 8.5C28.5 9.32843 27.8284 10 27 10H5C4.17157 10 3.5 9.32843 3.5 8.5Z" />
  <path fill-rule="evenodd" clip-rule="evenodd" d="M3.5 13.5C3.5 12.6716 4.17157 12 5 12H27C27.8284 12 28.5 12.6716 28.5 13.5C28.5 14.3284 27.8284 15 27 15H5C4.17157 15 3.5 14.3284 3.5 13.5Z" />
  <path fill-rule="evenodd" clip-rule="evenodd" d="M3.50098 18.5C3.50098 17.6716 4.17255 17 5.00098 17H27.0002C27.8286 17 28.5002 17.6716 28.5002 18.5C28.5002 19.3284 27.8286 20 27.0002 20H5.00098C4.17255 20 3.50098 19.3284 3.50098 18.5Z" />
  <path fill-rule="evenodd" clip-rule="evenodd" d="M3.50098 23.5C3.50098 22.6716 4.17255 22 5.00098 22H27.0002C27.8286 22 28.5002 22.6716 28.5002 23.5C28.5002 24.3284 27.8286 25 27.0002 25H5.00098C4.17255 25 3.50098 24.3284 3.50098 23.5Z" />
</svg>