<svg width="32" height="32" viewBox="0 0 32 32" fill="none" xmlns="http://www.w3.org/2000/svg">
<path fill-rule="evenodd" clip-rule="evenodd" d="M2.70458 21.2442C3.122 20.5286 4.04047 20.2869 4.75605 20.7043L16.0002 27.2634L27.2444 20.7043C27.96 20.2869 28.8785 20.5286 29.2959 21.2442C29.7133 21.9598 29.4716 22.8782 28.7561 23.2957L16.7561 30.2957C16.289 30.5681 15.7115 30.5681 15.2444 30.2957L3.24444 23.2957C2.52886 22.8782 2.28716 21.9598 2.70458 21.2442Z" fill="#889099"/>
<path fill-rule="evenodd" clip-rule="evenodd" d="M2.70458 15.2442C3.122 14.5286 4.04047 14.2869 4.75605 14.7043L16.0002 21.2634L27.2444 14.7043C27.96 14.2869 28.8785 14.5286 29.2959 15.2442C29.7133 15.9598 29.4716 16.8782 28.7561 17.2957L16.7561 24.2957C16.289 24.5681 15.7115 24.5681 15.2444 24.2957L3.24444 17.2957C2.52886 16.8782 2.28716 15.9598 2.70458 15.2442Z" fill="#889099"/>
<path fill-rule="evenodd" clip-rule="evenodd" d="M15.2442 1.70433C15.7112 1.43189 16.2888 1.43189 16.7558 1.70433L28.7558 8.70433C29.2166 8.97315 29.5 9.4665 29.5 10C29.5 10.5335 29.2166 11.0269 28.7558 11.2957L16.7558 18.2957C16.2888 18.5681 15.7112 18.5681 15.2442 18.2957L3.24419 11.2957C2.78337 11.0269 2.5 10.5335 2.5 10C2.5 9.4665 2.78337 8.97315 3.24419 8.70433L15.2442 1.70433ZM6.97695 10L16 15.2634L25.023 10L16 4.73656L6.97695 10Z" fill="#889099"/>
</svg>
