<svg xmlns="http://www.w3.org/2000/svg" width="20" height="20" viewBox="0 0 32 32" >
<path d="M28.1716 5.07795C28.614 5.47529 28.614 6.1686 28.1716 6.56594L23.9182 10.3859C23.2744 10.9641 22.25 10.5072 22.25 9.64193V2.00196C22.25 1.13669 23.2744 0.679804 23.9182 1.25797L28.1716 5.07795Z" />
<path d="M16 5.82178C16 4.99335 16.6716 4.32178 17.5 4.32178H26.5C27.3284 4.32178 28 4.99335 28 5.82178C28 6.6502 27.3284 7.32178 26.5 7.32178H17.5C16.6716 7.32178 16 6.6502 16 5.82178Z" />
<path d="M28.1716 18.366C28.614 18.7634 28.614 19.4567 28.1716 19.854L23.9182 23.674C23.2744 24.2522 22.25 23.7953 22.25 22.93V15.29C22.25 14.4248 23.2744 13.9679 23.9182 14.5461L28.1716 18.366Z" />
<path d="M16 19.1099C16 18.2814 16.6716 17.6099 17.5 17.6099H26.5C27.3284 17.6099 28 18.2814 28 19.1099C28 19.9383 27.3284 20.6099 26.5 20.6099H17.5C16.6716 20.6099 16 19.9383 16 19.1099Z" />
<path d="M3.83182 11.722C3.38939 12.1193 3.38939 12.8126 3.83182 13.21L8.08522 17.03C8.72898 17.6081 9.7534 17.1512 9.7534 16.286V8.646C9.7534 7.78073 8.72898 7.32385 8.08522 7.90201L3.83182 11.722Z" />
<path d="M16.0034 12.4658C16.0034 11.6374 15.3318 10.9658 14.5034 10.9658H5.50342C4.67499 10.9658 4.00342 11.6374 4.00342 12.4658C4.00342 13.2942 4.67499 13.9658 5.50342 13.9658H14.5034C15.3318 13.9658 16.0034 13.2942 16.0034 12.4658Z" />
<path d="M3.83182 25.0101C3.38939 25.4074 3.38939 26.1007 3.83182 26.4981L8.08522 30.3181C8.72898 30.8962 9.7534 30.4393 9.7534 29.5741V21.9341C9.7534 21.0688 8.72898 20.6119 8.08522 21.1901L3.83182 25.0101Z" />
<path d="M16.0034 25.7539C16.0034 24.9255 15.3318 24.2539 14.5034 24.2539H5.50342C4.67499 24.2539 4.00342 24.9255 4.00342 25.7539C4.00342 26.5823 4.67499 27.2539 5.50342 27.2539H14.5034C15.3318 27.2539 16.0034 26.5823 16.0034 25.7539Z" />
</svg>