<svg xmlns="http://www.w3.org/2000/svg" width="20" height="20" viewBox="0 0 32 32" >
<path d="M3.25 9.02575C3.24847 11.6088 4.20059 14.1015 5.92375 16.0257C6.18897 16.3223 6.56113 16.5013 6.95835 16.5235C7.35558 16.5456 7.74533 16.4091 8.04188 16.1439C8.33842 15.8787 8.51747 15.5065 8.53962 15.1093C8.56177 14.712 8.42522 14.3223 8.16 14.0257C6.93012 12.6507 6.25017 10.8706 6.25017 9.02575C6.25017 7.18092 6.93012 5.4008 8.16 4.02575C8.2967 3.8799 8.40286 3.7082 8.47225 3.52074C8.54165 3.33328 8.57287 3.13385 8.5641 2.93415C8.55532 2.73445 8.50672 2.53852 8.42115 2.35787C8.33558 2.17722 8.21477 2.0155 8.06581 1.8822C7.91685 1.74891 7.74275 1.64673 7.55375 1.58167C7.36474 1.51661 7.16464 1.48999 6.96519 1.50336C6.76575 1.51673 6.57099 1.56983 6.39236 1.65954C6.21373 1.74925 6.05483 1.87376 5.925 2.02575C4.20138 3.94983 3.24881 6.44254 3.25 9.02575Z" />
<path d="M8.25 9.02575C8.2498 10.3657 8.73874 11.6596 9.625 12.6645C9.75534 12.8122 9.9135 12.9329 10.0905 13.0195C10.2674 13.1061 10.4597 13.157 10.6563 13.1693C10.8529 13.1816 11.0501 13.1551 11.2364 13.0912C11.4228 13.0273 11.5948 12.9273 11.7425 12.797C11.8902 12.6667 12.0109 12.5085 12.0975 12.3315C12.1841 12.1546 12.235 11.9623 12.2473 11.7657C12.2596 11.5691 12.2331 11.3719 12.1692 11.1856C12.1053 10.9992 12.0053 10.8272 11.875 10.6795C11.4732 10.223 11.2515 9.63575 11.2515 9.02762C11.2515 8.41949 11.4732 7.83221 11.875 7.37575C12.1248 7.07559 12.2476 6.68986 12.2175 6.30055C12.1874 5.91123 12.0066 5.54901 11.7136 5.29087C11.4206 5.03272 11.0385 4.899 10.6485 4.91811C10.2585 4.93723 9.89133 5.10768 9.625 5.39325C8.73956 6.3962 8.25063 7.68786 8.25 9.02575Z" />
<path d="M22.375 12.6645C23.2612 11.6596 23.7502 10.3657 23.75 9.02575C23.7493 7.68786 23.2604 6.3962 22.375 5.39325C22.1086 5.10768 21.7415 4.93723 21.3514 4.91811C20.9614 4.899 20.5793 5.03272 20.2864 5.29087C19.9934 5.54901 19.8126 5.91123 19.7825 6.30055C19.7523 6.68986 19.8752 7.07559 20.125 7.37575C20.5268 7.83221 20.7485 8.41949 20.7485 9.02762C20.7485 9.63575 20.5268 10.223 20.125 10.6795C19.9946 10.8272 19.8947 10.9992 19.8308 11.1856C19.7669 11.3719 19.7404 11.5691 19.7527 11.7657C19.765 11.9623 19.8159 12.1546 19.9025 12.3315C19.9891 12.5085 20.1097 12.6667 20.2575 12.797C20.4052 12.9273 20.5772 13.0273 20.7635 13.0912C20.9499 13.1551 21.147 13.1816 21.3437 13.1693C21.5403 13.157 21.7326 13.1061 21.9095 13.0195C22.0865 12.9329 22.2446 12.8122 22.375 12.6645Z" />
<path d="M28.75 9.02575C28.7515 11.6088 27.7994 14.1015 26.0762 16.0257C25.811 16.3223 25.4388 16.5013 25.0416 16.5235C24.6444 16.5456 24.2546 16.4091 23.9581 16.1439C23.6615 15.8787 23.4825 15.5065 23.4604 15.1093C23.4382 14.712 23.5748 14.3223 23.84 14.0257C25.0699 12.6507 25.7498 10.8706 25.7498 9.02575C25.7498 7.18092 25.0699 5.4008 23.84 4.02575C23.7033 3.8799 23.5971 3.7082 23.5277 3.52074C23.4583 3.33328 23.4271 3.13385 23.4359 2.93415C23.4447 2.73445 23.4933 2.53852 23.5788 2.35787C23.6644 2.17722 23.7852 2.0155 23.9342 1.8822C24.0831 1.74891 24.2572 1.64673 24.4462 1.58167C24.6352 1.51661 24.8353 1.48999 25.0348 1.50336C25.2342 1.51673 25.429 1.56983 25.6076 1.65954C25.7862 1.74925 25.9451 1.87376 26.075 2.02575C27.7986 3.94983 28.7512 6.44254 28.75 9.02575Z" />
<path d="M15.1388 10.6424C15.4677 10.8622 15.8544 10.9795 16.25 10.9795C16.7804 10.9795 17.2891 10.7688 17.6642 10.3937C18.0393 10.0186 18.25 9.50993 18.25 8.97949C18.25 8.58393 18.1327 8.19725 17.9129 7.86835C17.6932 7.53945 17.3808 7.28311 17.0154 7.13173C16.6499 6.98036 16.2478 6.94075 15.8598 7.01792C15.4718 7.09509 15.1155 7.28557 14.8358 7.56528C14.5561 7.84499 14.3656 8.20135 14.2884 8.58931C14.2112 8.97727 14.2509 9.37941 14.4022 9.74486C14.5536 10.1103 14.8099 10.4227 15.1388 10.6424Z" />
<path d="M12 24C12 24.3956 11.8827 24.7822 11.6629 25.1111C11.4432 25.44 11.1308 25.6964 10.7654 25.8478C10.3999 25.9991 9.99778 26.0387 9.60982 25.9616C9.22186 25.8844 8.86549 25.6939 8.58579 25.4142C8.30608 25.1345 8.1156 24.7781 8.03843 24.3902C7.96126 24.0022 8.00087 23.6001 8.15224 23.2346C8.30362 22.8692 8.55996 22.5568 8.88886 22.3371C9.21776 22.1173 9.60444 22 10 22C10.5304 22 11.0391 22.2107 11.4142 22.5858C11.7893 22.9609 12 23.4696 12 24Z" />
<path fill-rule="evenodd" clip-rule="evenodd" d="M6 17.5H26C26.663 17.5 27.2989 17.7739 27.7678 18.2615C28.2366 18.7491 28.5 19.4104 28.5 20.1V27.9C28.5 28.5896 28.2366 29.2509 27.7678 29.7385C27.2989 30.2261 26.663 30.5 26 30.5H6C5.33696 30.5 4.70108 30.2261 4.23223 29.7385C3.76339 29.2509 3.5 28.5896 3.5 27.9V20.1C3.5 19.4104 3.76339 18.7491 4.23223 18.2615C4.70108 17.7739 5.33696 17.5 6 17.5ZM6.5 27.38H25.5V20.62H6.5V27.38Z" />
</svg>