<svg width="32" height="32" viewBox="0 0 32 32" fill="none" xmlns="http://www.w3.org/2000/svg">
<path fill-rule="evenodd" clip-rule="evenodd" d="M4.99951 6.00001L26.9995 6C27.8279 6 28.4995 6.67157 28.4995 7.5C28.4995 8.32843 27.8279 9 26.9995 9L4.99951 9.00001C4.17109 9.00001 3.49951 8.32843 3.49951 7.50001C3.49951 6.67158 4.17108 6.00001 4.99951 6.00001Z" fill="#889099"/>
<path fill-rule="evenodd" clip-rule="evenodd" d="M9.5 2.5C9.5 1.67157 10.1716 1 11 1H21C21.8284 1 22.5 1.67157 22.5 2.5C22.5 3.32843 21.8284 4 21 4H11C10.1716 4 9.5 3.32843 9.5 2.5Z" fill="#889099"/>
<path fill-rule="evenodd" clip-rule="evenodd" d="M7 6C7.82843 6 8.5 6.67157 8.5 7.5V25.5H23.5V7.5C23.5 6.67157 24.1716 6 25 6C25.8284 6 26.5 6.67157 26.5 7.5V26C26.5 26.663 26.2366 27.2989 25.7678 27.7678C25.2989 28.2366 24.663 28.5 24 28.5H8C7.33696 28.5 6.70108 28.2366 6.23223 27.7678C5.76339 27.2989 5.5 26.663 5.5 26V7.5C5.5 6.67157 6.17157 6 7 6Z" fill="#889099"/>
</svg>
