<svg width="32" height="32" viewBox="0 0 32 32" fill="none" xmlns="http://www.w3.org/2000/svg">
<path fill-rule="evenodd" clip-rule="evenodd" d="M4.99951 6.00001L26.9995 6C27.8279 6 28.4995 6.67157 28.4995 7.5C28.4995 8.32843 27.8279 9 26.9995 9L4.99951 9.00001C4.17109 9.00001 3.49951 8.32843 3.49951 7.50001C3.49951 6.67158 4.17108 6.00001 4.99951 6.00001Z" fill="#889099"/>
<path fill-rule="evenodd" clip-rule="evenodd" d="M13 11.5C13.8284 11.5 14.5 12.1716 14.5 13V21C14.5 21.8284 13.8284 22.5 13 22.5C12.1716 22.5 11.5 21.8284 11.5 21V13C11.5 12.1716 12.1716 11.5 13 11.5Z" fill="#889099"/>
<path fill-rule="evenodd" clip-rule="evenodd" d="M19 11.5C19.8284 11.5 20.5 12.1716 20.5 13V21C20.5 21.8284 19.8284 22.5 19 22.5C18.1716 22.5 17.5 21.8284 17.5 21V13C17.5 12.1716 18.1716 11.5 19 11.5Z" fill="#889099"/>
<path fill-rule="evenodd" clip-rule="evenodd" d="M7 6C7.82843 6 8.5 6.67157 8.5 7.5V25.5H23.5V7.5C23.5 6.67157 24.1716 6 25 6C25.8284 6 26.5 6.67157 26.5 7.5V26C26.5 26.663 26.2366 27.2989 25.7678 27.7678C25.2989 28.2366 24.663 28.5 24 28.5H8C7.33696 28.5 6.70108 28.2366 6.23223 27.7678C5.76339 27.2989 5.5 26.663 5.5 26V7.5C5.5 6.67157 6.17157 6 7 6Z" fill="#889099"/>
<path fill-rule="evenodd" clip-rule="evenodd" d="M10.5251 2.02513C11.1815 1.36875 12.0717 1 13 1H19C19.9283 1 20.8185 1.36875 21.4749 2.02513C22.1313 2.6815 22.5 3.57174 22.5 4.5V7.5C22.5 8.32843 21.8284 9 21 9C20.1716 9 19.5 8.32843 19.5 7.5V4.5C19.5 4.36739 19.4473 4.24022 19.3536 4.14645C19.2598 4.05268 19.1326 4 19 4H13C12.8674 4 12.7402 4.05268 12.6464 4.14645C12.5527 4.24022 12.5 4.36739 12.5 4.5V7.5C12.5 8.32843 11.8284 9 11 9C10.1716 9 9.5 8.32843 9.5 7.5V4.5C9.5 3.57174 9.86875 2.6815 10.5251 2.02513Z" fill="#889099"/>
</svg>
