<svg width="32" height="32" viewBox="0 0 32 32" fill="none" xmlns="http://www.w3.org/2000/svg">
<path fill-rule="evenodd" clip-rule="evenodd" d="M1.93983 7.93934C2.52561 7.35355 3.47536 7.35355 4.06115 7.93934L12.0005 15.8787L15.9398 11.9393C16.5256 11.3536 17.4754 11.3536 18.0611 11.9393L30.0611 23.9393C30.6469 24.5251 30.6469 25.4749 30.0611 26.0607C29.4754 26.6464 28.5256 26.6464 27.9398 26.0607L17.0005 15.1213L13.0611 19.0607C12.4754 19.6464 11.5256 19.6464 10.9398 19.0607L1.93983 10.0607C1.35404 9.47487 1.35404 8.52513 1.93983 7.93934Z" fill="#889099"/>
<path fill-rule="evenodd" clip-rule="evenodd" d="M29.0005 15.5C29.8289 15.5 30.5005 16.1716 30.5005 17V25C30.5005 25.8284 29.8289 26.5 29.0005 26.5H21.0005C20.1721 26.5 19.5005 25.8284 19.5005 25C19.5005 24.1716 20.1721 23.5 21.0005 23.5H27.5005V17C27.5005 16.1716 28.1721 15.5 29.0005 15.5Z" fill="#889099"/>
</svg>
