<svg width="32" height="32" viewBox="0 0 32 32" fill="none" xmlns="http://www.w3.org/2000/svg">
<path fill-rule="evenodd" clip-rule="evenodd" d="M30.0611 5.93934C30.6469 6.52513 30.6469 7.47487 30.0611 8.06066L18.0611 20.0607C17.4754 20.6464 16.5256 20.6464 15.9398 20.0607L12.0005 16.1213L4.06115 24.0607C3.47536 24.6464 2.52561 24.6464 1.93983 24.0607C1.35404 23.4749 1.35404 22.5251 1.93983 21.9393L10.9398 12.9393C11.5256 12.3536 12.4754 12.3536 13.0611 12.9393L17.0005 16.8787L27.9398 5.93934C28.5256 5.35355 29.4754 5.35355 30.0611 5.93934Z" fill="#889099"/>
<path fill-rule="evenodd" clip-rule="evenodd" d="M19.5005 7C19.5005 6.17157 20.1721 5.5 21.0005 5.5H29.0005C29.8289 5.5 30.5005 6.17157 30.5005 7V15C30.5005 15.8284 29.8289 16.5 29.0005 16.5C28.1721 16.5 27.5005 15.8284 27.5005 15V8.5H21.0005C20.1721 8.5 19.5005 7.82843 19.5005 7Z" fill="#889099"/>
</svg>
