<svg viewBox="0 0 16 16" fill="none" xmlns="http://www.w3.org/2000/svg">
<path d="M2.38756 3.03125L6.02506 12.7313C6.06121 12.8267 6.12571 12.9088 6.2099 12.9665C6.29408 13.0243 6.39392 13.0548 6.49599 13.0542C6.59806 13.0535 6.69747 13.0216 6.78088 12.9627C6.86429 12.9039 6.92769 12.8209 6.96256 12.725L8.41881 8.71875C8.44414 8.65002 8.48408 8.5876 8.53587 8.53581C8.58766 8.48401 8.65008 8.44408 8.71881 8.41875L12.7251 6.9625C12.821 6.92763 12.904 6.86423 12.9628 6.78082C13.0216 6.69741 13.0535 6.598 13.0542 6.49592C13.0549 6.39385 13.0243 6.29402 12.9666 6.20984C12.9089 6.12565 12.8268 6.06115 12.7313 6.025L3.03131 2.3875C2.94142 2.35378 2.84372 2.34666 2.74988 2.36698C2.65605 2.3873 2.57005 2.43421 2.50216 2.5021C2.43427 2.56999 2.38736 2.65599 2.36704 2.74982C2.34672 2.84366 2.35384 2.94136 2.38756 3.03125V3.03125Z" stroke="currentColor" stroke-width="1.4" stroke-linecap="round" stroke-linejoin="round" fill="none"/>
<path d="M8.5376 8.53748L13.0001 13" stroke="currentColor" stroke-width="1.4" stroke-linecap="round" stroke-linejoin="round"/>
</svg> 