<svg width="32" height="32" viewBox="0 0 32 32" fill="none" xmlns="http://www.w3.org/2000/svg">
<path fill-rule="evenodd" clip-rule="evenodd" d="M14.9395 3.9392C15.5252 3.3536 16.4748 3.3536 17.0605 3.9392L22.3105 9.18783C22.8964 9.77354 22.8965 10.7233 22.3108 11.3091C21.7251 11.895 20.7753 11.8951 20.1895 11.3094L16 7.12104L11.8105 11.3094C11.2247 11.8951 10.2749 11.895 9.6892 11.3091C9.10349 10.7233 9.10362 9.77354 9.68948 9.18783L14.9395 3.9392Z" fill="#889099"/>
<path fill-rule="evenodd" clip-rule="evenodd" d="M16 3.50366C16.8284 3.50366 17.5 4.17523 17.5 5.00366V19C17.5 19.8284 16.8284 20.5 16 20.5C15.1716 20.5 14.5 19.8284 14.5 19V5.00366C14.5 4.17523 15.1716 3.50366 16 3.50366Z" fill="#889099"/>
<path fill-rule="evenodd" clip-rule="evenodd" d="M5 17.5C5.82843 17.5 6.5 18.1716 6.5 19V25.5H25.5V19C25.5 18.1716 26.1716 17.5 27 17.5C27.8284 17.5 28.5 18.1716 28.5 19V26C28.5 26.663 28.2366 27.2989 27.7678 27.7678C27.2989 28.2366 26.663 28.5 26 28.5H6C5.33696 28.5 4.70108 28.2366 4.23223 27.7678C3.76339 27.2989 3.5 26.663 3.5 26V19C3.5 18.1716 4.17157 17.5 5 17.5Z" fill="#889099"/>
</svg>
