<svg width="32" height="32" viewBox="0 0 32 32" fill="none" xmlns="http://www.w3.org/2000/svg">
<path d="M28.9919 26.4983C27.126 23.2846 24.1378 20.8741 20.6019 19.7305C22.2958 18.7226 23.612 17.1865 24.3483 15.3581C25.0847 13.5297 25.2004 11.5102 24.6777 9.60965C24.1551 7.70912 23.0229 6.03273 21.4552 4.83795C19.8875 3.64318 17.971 2.99609 15.9999 2.99609C14.0288 2.99609 12.1122 3.64318 10.5445 4.83795C8.97681 6.03273 7.84469 7.70912 7.32203 9.60965C6.79938 11.5102 6.91509 13.5297 7.6514 15.3581C8.38772 17.1865 9.70391 18.7226 11.3978 19.7305C7.86207 20.8741 4.87393 23.2845 3.00799 26.4981C2.92003 26.6501 2.87366 26.8226 2.87354 26.9982C2.87341 27.1738 2.91954 27.3464 3.00727 27.4985C3.09501 27.6506 3.22126 27.777 3.37333 27.8648C3.52539 27.9526 3.69791 27.9989 3.87353 27.9989L28.1264 27.9991C28.302 27.9992 28.4745 27.9529 28.6266 27.8651C28.7787 27.7772 28.9049 27.6509 28.9927 27.4988C29.0804 27.3466 29.1265 27.1741 29.1264 26.9985C29.1263 26.8228 29.0799 26.6503 28.9919 26.4983L28.9919 26.4983Z" fill="#889099"/>
</svg>
