<svg xmlns="http://www.w3.org/2000/svg" width="20" height="20" viewBox="0 0 32 32" >
  <g clip-path="url(#clip0_178789_107060)">
    <path d="M12.1716 15.2562C12.614 15.6535 12.614 16.3468 12.1716 16.7442L7.9182 20.5641C7.27444 21.1423 6.25001 20.6854 6.25001 19.8202L6.25001 12.1802C6.25001 11.3149 7.27444 10.858 7.9182 11.4362L12.1716 15.2562Z" />
    <path d="M0 16C0 15.1716 0.671573 14.5 1.5 14.5H10.5C11.3284 14.5 12 15.1716 12 16C12 16.8284 11.3284 17.5 10.5 17.5H1.5C0.671573 17.5 0 16.8284 0 16Z" />
    <path d="M19.8284 15.2562C19.386 15.6535 19.386 16.3468 19.8284 16.7442L24.0818 20.5641C24.7256 21.1423 25.75 20.6854 25.75 19.8202V12.1802C25.75 11.3149 24.7256 10.858 24.0818 11.4362L19.8284 15.2562Z" />
    <path d="M32 16C32 15.1716 31.3284 14.5 30.5 14.5H21.5C20.6716 14.5 20 15.1716 20 16C20 16.8284 20.6716 17.5 21.5 17.5H30.5C31.3284 17.5 32 16.8284 32 16Z" />
    <path d="M15.2562 0.828398C15.6535 0.385976 16.3468 0.385977 16.7442 0.828399L20.5641 5.0818C21.1423 5.72556 20.6854 6.74999 19.8202 6.74999H12.1802C11.3149 6.74999 10.858 5.72556 11.4362 5.0818L15.2562 0.828398Z" />
    <path d="M16 13C15.1716 13 14.5 12.3284 14.5 11.5V2.5C14.5 1.67157 15.1716 1 16 1C16.8284 1 17.5 1.67157 17.5 2.5V11.5C17.5 12.3284 16.8284 13 16 13Z" />
    <path d="M16.7438 31.1716C16.3465 31.614 15.6532 31.614 15.2558 31.1716L11.4359 26.9182C10.8577 26.2744 11.3146 25.25 12.1798 25.25H19.8198C20.6851 25.25 21.142 26.2744 20.5638 26.9182L16.7438 31.1716Z" />
    <path d="M16 19C16.8284 19 17.5 19.6716 17.5 20.5V29.5C17.5 30.3284 16.8284 31 16 31C15.1716 31 14.5 30.3284 14.5 29.5V20.5C14.5 19.6716 15.1716 19 16 19Z" />
  </g>
  <defs>
    <clipPath id="clip0_178789_107060">
      <rect width="20" height="20" />
    </clipPath>
  </defs>
</svg>