<svg width="32" height="32" viewBox="0 0 32 32" fill="none" xmlns="http://www.w3.org/2000/svg">
<path fill-rule="evenodd" clip-rule="evenodd" d="M15.9989 8.50049C11.5782 8.50049 7.33493 10.2392 4.18538 13.3413C3.59515 13.9226 2.64543 13.9154 2.06412 13.3251C1.4828 12.7349 1.49002 11.7852 2.08025 11.2039C5.79104 7.54908 10.7905 5.50049 15.9989 5.50049C21.2073 5.50049 26.2067 7.54908 29.9175 11.2039C30.5077 11.7852 30.5149 12.7349 29.9336 13.3251C29.3523 13.9154 28.4026 13.9226 27.8123 13.3413C24.6628 10.2392 20.4195 8.50049 15.9989 8.50049ZM8.42033 17.5881C10.4463 15.6087 13.1663 14.5005 15.9988 14.5005C18.8312 14.5005 21.5512 15.6087 23.5772 17.5881C24.1698 18.1671 25.1194 18.156 25.6984 17.5635C26.2773 16.9709 26.2663 16.0212 25.6737 15.4423C23.0873 12.9153 19.6148 11.5005 15.9988 11.5005C12.3828 11.5005 8.91025 12.9153 6.32381 15.4423C5.73125 16.0212 5.72022 16.9709 6.29916 17.5635C6.8781 18.156 7.82778 18.1671 8.42033 17.5881ZM12.6508 21.8425C13.5526 20.9812 14.7517 20.5005 15.9988 20.5005C17.2459 20.5005 18.445 20.9812 19.3468 21.8425C19.9459 22.4147 20.8954 22.393 21.4676 21.7939C22.0398 21.1949 22.018 20.2454 21.419 19.6732C19.959 18.2786 18.0177 17.5005 15.9988 17.5005C13.9799 17.5005 12.0386 18.2786 10.5787 19.6732C9.97962 20.2454 9.95785 21.1949 10.5301 21.7939C11.1023 22.393 12.0518 22.4147 12.6508 21.8425ZM17.9998 25.0001C17.9998 26.1047 17.1043 27.0001 15.9998 27.0001C14.8952 27.0001 13.9998 26.1047 13.9998 25.0001C13.9998 23.8956 14.8952 23.0001 15.9998 23.0001C17.1043 23.0001 17.9998 23.8956 17.9998 25.0001Z" fill="#889099"/>
</svg>
