<svg width="32" height="32" viewBox="0 0 32 32" fill="none" xmlns="http://www.w3.org/2000/svg">
<path fill-rule="evenodd" clip-rule="evenodd" d="M15.9988 20.5002C14.7517 20.5002 13.5526 20.9809 12.6508 21.8423C12.0518 22.4145 11.1023 22.3927 10.5301 21.7937C9.95785 21.1946 9.97962 20.2451 10.5787 19.6729C12.0386 18.2784 13.9799 17.5002 15.9988 17.5002C18.0177 17.5002 19.959 18.2784 21.419 19.6729C22.018 20.2451 22.0398 21.1946 21.4676 21.7937C20.8954 22.3927 19.9459 22.4145 19.3468 21.8423C18.445 20.9809 17.2459 20.5002 15.9988 20.5002Z" fill="#889099"/>
<path d="M16 27C17.1046 27 18 26.1046 18 25C18 23.8954 17.1046 23 16 23C14.8954 23 14 23.8954 14 25C14 26.1046 14.8954 27 16 27Z" fill="#889099"/>
</svg>
