<svg width="32" height="32" viewBox="0 0 32 32" fill="none" xmlns="http://www.w3.org/2000/svg">
<path fill-rule="evenodd" clip-rule="evenodd" d="M4.98856 3.8901C5.60155 3.33284 6.55022 3.37802 7.10748 3.991L27.1075 25.991C27.6647 26.604 27.6196 27.5527 27.0066 28.1099C26.3936 28.6672 25.4449 28.622 24.8877 28.009L4.88766 6.00902C4.3304 5.39603 4.37557 4.44736 4.98856 3.8901Z" fill="#889099"/>
<path fill-rule="evenodd" clip-rule="evenodd" d="M10.4394 7.79035C10.753 8.5571 10.3858 9.43295 9.61901 9.74662C7.59017 10.5766 5.74414 11.7971 4.18578 13.3387C3.59685 13.9213 2.64711 13.9162 2.06449 13.3273C1.48188 12.7383 1.487 11.7886 2.07594 11.206C3.91363 9.38801 6.09058 7.94876 8.4831 6.96999C9.24985 6.65631 10.1257 7.0236 10.4394 7.79035Z" fill="#889099"/>
<path fill-rule="evenodd" clip-rule="evenodd" d="M14.9693 12.9518C15.1351 13.7634 14.6116 14.5558 13.7999 14.7216C11.7683 15.1367 9.90037 16.1311 8.4217 17.5848C7.83094 18.1656 6.88122 18.1575 6.30045 17.5667C5.71968 16.9759 5.72778 16.0262 6.31854 15.4455C8.21035 13.5856 10.6002 12.3134 13.1994 11.7824C14.0111 11.6165 14.8035 12.1401 14.9693 12.9518Z" fill="#889099"/>
<path fill-rule="evenodd" clip-rule="evenodd" d="M19.1008 21.6214C18.1854 20.8603 17.0223 20.4623 15.8325 20.5031C14.6428 20.5439 13.5096 21.0206 12.6485 21.8426C12.0493 22.4146 11.0998 22.3926 10.5278 21.7933C9.95577 21.1941 9.97782 20.2446 10.5771 19.6726C11.9705 18.3424 13.8044 17.5709 15.7297 17.5049C17.6551 17.4388 19.5375 18.0829 21.0188 19.3146C21.6558 19.8442 21.7428 20.79 21.2132 21.427C20.6836 22.064 19.7378 22.151 19.1008 21.6214Z" fill="#889099"/>
<path fill-rule="evenodd" clip-rule="evenodd" d="M27.8081 13.3387C24.6655 10.23 20.4207 8.49059 16.0002 8.50028L15.9976 8.50029C15.5703 8.50047 15.1481 8.51607 14.7309 8.54695C13.9047 8.60809 13.1854 7.98791 13.1243 7.16175C13.0631 6.33558 13.6833 5.61627 14.5095 5.55513C15.0007 5.51877 15.4959 5.50054 15.9949 5.50029C15.9954 5.50029 15.9958 5.50029 15.9963 5.50029L15.9969 7.00029L15.9936 5.50029C15.9941 5.50029 15.9945 5.50029 15.9949 5.50029C21.2072 5.4892 26.2123 7.5403 29.9179 11.206C30.5068 11.7886 30.512 12.7383 29.9294 13.3273C29.3467 13.9162 28.397 13.9214 27.8081 13.3387Z" fill="#889099"/>
<path fill-rule="evenodd" clip-rule="evenodd" d="M19.6021 13.4372C19.9358 12.6789 20.821 12.3348 21.5792 12.6685C23.1015 13.3384 24.4894 14.2793 25.6753 15.4454C26.266 16.0262 26.2741 16.9759 25.6933 17.5666C25.1124 18.1573 24.1627 18.1654 23.572 17.5846C22.6452 16.6733 21.5605 15.9379 20.3708 15.4143C19.6125 15.0806 19.2684 14.1954 19.6021 13.4372Z" fill="#889099"/>
<path d="M16 27C17.1046 27 18 26.1046 18 25C18 23.8954 17.1046 23 16 23C14.8954 23 14 23.8954 14 25C14 26.1046 14.8954 27 16 27Z" fill="#889099"/>
</svg>
