<svg width="32" height="32" viewBox="0 0 32 32" fill="none" xmlns="http://www.w3.org/2000/svg">
<path fill-rule="evenodd" clip-rule="evenodd" d="M15.9988 20.5002C14.7517 20.5002 13.5526 20.9809 12.6508 21.8423C12.0518 22.4145 11.1023 22.3927 10.5301 21.7937C9.95785 21.1946 9.97962 20.2451 10.5787 19.6729C12.0386 18.2784 13.9799 17.5002 15.9988 17.5002C18.0177 17.5002 19.959 18.2784 21.419 19.6729C22.018 20.2451 22.0398 21.1946 21.4676 21.7937C20.8954 22.3927 19.9459 22.4145 19.3468 21.8423C18.445 20.9809 17.2459 20.5002 15.9988 20.5002Z" fill="#889099"/>
<path fill-rule="evenodd" clip-rule="evenodd" d="M29.0607 5.93934C29.6464 6.52513 29.6464 7.47487 29.0607 8.06066L23.0607 14.0607C22.4749 14.6464 21.5251 14.6464 20.9393 14.0607C20.3536 13.4749 20.3536 12.5251 20.9393 11.9393L26.9393 5.93934C27.5251 5.35355 28.4749 5.35355 29.0607 5.93934Z" fill="#889099"/>
<path fill-rule="evenodd" clip-rule="evenodd" d="M20.9393 5.93934C21.5251 5.35355 22.4749 5.35355 23.0607 5.93934L29.0607 11.9393C29.6464 12.5251 29.6464 13.4749 29.0607 14.0607C28.4749 14.6464 27.5251 14.6464 26.9393 14.0607L20.9393 8.06066C20.3536 7.47487 20.3536 6.52513 20.9393 5.93934Z" fill="#889099"/>
<path fill-rule="evenodd" clip-rule="evenodd" d="M15.9956 8.50028C11.5751 8.49059 7.33032 10.23 4.18772 13.3387C3.59877 13.9214 2.64904 13.9162 2.06643 13.3273C1.48382 12.7383 1.48896 11.7886 2.07791 11.206C5.78338 7.54039 10.7883 5.4893 16.0005 5.50029" fill="#889099"/>
<path fill-rule="evenodd" clip-rule="evenodd" d="M15.9953 14.5003C13.1639 14.4928 10.4436 15.6011 8.42367 17.5851C7.83265 18.1656 6.88294 18.1571 6.30243 17.5661C5.72192 16.9751 5.73044 16.0254 6.32145 15.4449C8.90386 12.9084 12.3815 11.4912 16.0012 11.5003" fill="#889099"/>
<path d="M16 27C17.1046 27 18 26.1046 18 25C18 23.8954 17.1046 23 16 23C14.8954 23 14 23.8954 14 25C14 26.1046 14.8954 27 16 27Z" fill="#889099"/>
</svg>
