<svg xmlns="http://www.w3.org/2000/svg" width="20" height="20" viewBox="0 0 32 32">
  <path d="M29.0316 9.91447C29.0723 9.96077 29.101 10.0164 29.1151 10.0764C29.1292 10.1364 29.1283 10.199 29.1124 10.2586C29.0965 10.3182 29.0662 10.3729 29.0242 10.418L23.7742 16.043C23.7185 16.1026 23.6449 16.1425 23.5645 16.1565C23.4841 16.1706 23.4014 16.158 23.3288 16.1208C23.2562 16.0835 23.1977 16.0236 23.1623 15.9501C23.1268 15.8766 23.1163 15.7936 23.1323 15.7136L23.8198 12.2763L21.1183 11.2632C21.0606 11.2416 21.0091 11.206 20.9684 11.1597C20.9277 11.1134 20.899 11.0578 20.8849 10.9978C20.8708 10.9378 20.8718 10.8752 20.8876 10.8156C20.9035 10.7561 20.9338 10.7013 20.9759 10.6562L26.2259 5.03124C26.2815 4.97159 26.3551 4.93173 26.4355 4.9177C26.5159 4.90367 26.5986 4.91623 26.6712 4.95348C26.7438 4.99073 26.8023 5.05064 26.8377 5.12412C26.8732 5.1976 26.8837 5.28064 26.8677 5.36064L26.1803 8.79795L28.8817 9.81098C28.9394 9.83263 28.9909 9.86818 29.0316 9.91447Z" />
  <path d="M15.9956 8.50004C11.5751 8.49035 7.33032 10.2297 4.18772 13.3385C3.59877 13.9211 2.64904 13.916 2.06643 13.327C1.48382 12.7381 1.48896 11.7883 2.07791 11.2057C5.78338 7.54015 10.7883 5.48906 16.0005 5.50004L15.9956 8.50004Z" />
  <path d="M15.9993 20.5C14.7522 20.5 13.5531 20.9807 12.6513 21.842C12.0523 22.4143 11.1028 22.3925 10.5306 21.7934C9.95834 21.1944 9.9801 20.2449 10.5792 19.6727C12.0391 18.2782 13.9804 17.5 15.9993 17.5C18.0182 17.5 19.9595 18.2782 21.4194 19.6727C22.0185 20.2449 22.0403 21.1944 21.4681 21.7934C20.8958 22.3925 19.9463 22.4143 19.3473 21.842C18.4455 20.9807 17.2464 20.5 15.9993 20.5Z" />
  <path d="M8.42416 17.5849C10.4441 15.6008 13.1644 14.4925 15.9958 14.5L16.0017 11.5C12.382 11.491 8.90435 12.9081 6.32194 15.4446C5.73092 16.0251 5.72241 16.9749 6.30292 17.5659C6.88343 18.1569 7.83314 18.1654 8.42416 17.5849Z" />
  <path d="M16 27C17.1046 27 18 26.1046 18 25C18 23.8954 17.1046 23 16 23C14.8954 23 14 23.8954 14 25C14 26.1046 14.8954 27 16 27Z" />
</svg>
