<svg width="32" height="32" viewBox="0 0 32 32" fill="none" xmlns="http://www.w3.org/2000/svg">
<path fill-rule="evenodd" clip-rule="evenodd" d="M15.9988 20.5002C14.7517 20.5002 13.5526 20.9809 12.6508 21.8423C12.0518 22.4145 11.1023 22.3927 10.5301 21.7937C9.95785 21.1946 9.97962 20.2451 10.5787 19.6729C12.0386 18.2784 13.9799 17.5002 15.9988 17.5002C18.0177 17.5002 19.959 18.2784 21.419 19.6729C22.018 20.2451 22.0398 21.1946 21.4676 21.7937C20.8954 22.3927 19.9459 22.4145 19.3468 21.8423C18.445 20.9809 17.2459 20.5002 15.9988 20.5002Z" fill="#889099"/>
<path fill-rule="evenodd" clip-rule="evenodd" d="M15.9993 14.5002C13.1668 14.5002 10.4468 15.6084 8.42082 17.5879C7.82827 18.1668 6.87859 18.1558 6.29965 17.5632C5.72071 16.9707 5.73174 16.021 6.3243 15.442C8.91074 12.915 12.3832 11.5002 15.9993 11.5002C19.6153 11.5002 23.0878 12.915 25.6742 15.442C26.2668 16.021 26.2778 16.9707 25.6989 17.5632C25.1199 18.1558 24.1703 18.1668 23.5777 17.5879C21.5517 15.6084 18.8317 14.5002 15.9993 14.5002Z" fill="#889099"/>
<path d="M16 27C17.1046 27 18 26.1046 18 25C18 23.8954 17.1046 23 16 23C14.8954 23 14 23.8954 14 25C14 26.1046 14.8954 27 16 27Z" fill="#889099"/>
</svg>
