<svg xmlns="http://www.w3.org/2000/svg" width="20" height="20" viewBox="0 0 32 32" >
<path d="M15.0783 1.33182C15.4757 0.889394 16.169 0.889395 16.5663 1.33182L20.3863 5.58522C20.9645 6.22898 20.5076 7.2534 19.6423 7.2534H17.3221L17.3222 12.0034C17.3222 12.8318 16.6506 13.5034 15.8221 13.5034C14.9937 13.5034 14.3221 12.8318 14.3221 12.0034V7.2534H12.0023C11.1371 7.2534 10.6802 6.22898 11.2583 5.58522L15.0783 1.33182Z" />
<path d="M15.0204 18.8284C15.4102 18.386 16.0905 18.386 16.4804 18.8284L19.2473 23.0818C19.8145 23.7256 19.3663 24.75 18.5173 24.75H17.222L17.222 29.5C17.222 30.3284 16.563 31 15.7502 31C14.9374 31 14.2784 30.3284 14.2784 29.5V24.75H12.9835C12.1345 24.75 11.6862 23.7256 12.2535 23.0818L15.0204 18.8284Z" />
<path d="M12.5002 15.9756C12.7522 15.4369 12.4813 14.7987 11.9188 14.6059L6.90162 13.672C6.08313 13.3913 5.31866 14.2122 5.65675 15.0087L6.17244 16.2236L1.80003 18.0795C1.03746 18.4032 0.68168 19.2838 1.00537 20.0464C1.32906 20.809 2.20965 21.1647 2.97223 20.841L7.34464 18.9851L7.86046 20.2003C8.19855 20.9968 9.32006 21.0171 9.68673 20.2333L12.5002 15.9756Z" />
<path d="M20.0814 14.6059C19.5189 14.7987 19.248 15.4369 19.5 15.9756L22.3134 20.2333C22.6801 21.0171 23.8016 20.9968 24.1397 20.2003L24.6555 18.9851L29.0279 20.841C29.7905 21.1647 30.6711 20.809 30.9948 20.0464C31.3185 19.2838 30.9627 18.4032 30.2001 18.0795L25.8277 16.2236L26.3434 15.0087C26.6815 14.2122 25.917 13.3913 25.0985 13.672L20.0814 14.6059Z" />
</svg>