<svg width="32" height="32" viewBox="0 0 32 32" fill="none" xmlns="http://www.w3.org/2000/svg">
<path fill-rule="evenodd" clip-rule="evenodd" d="M16 5.5C10.201 5.5 5.5 10.201 5.5 16C5.5 21.799 10.201 26.5 16 26.5C21.799 26.5 26.5 21.799 26.5 16C26.5 10.201 21.799 5.5 16 5.5ZM2.5 16C2.5 8.54416 8.54416 2.5 16 2.5C23.4558 2.5 29.5 8.54416 29.5 16C29.5 23.4558 23.4558 29.5 16 29.5C8.54416 29.5 2.5 23.4558 2.5 16Z" fill="#889099"/>
<path fill-rule="evenodd" clip-rule="evenodd" d="M21.0607 10.9393C21.6464 11.5251 21.6464 12.4749 21.0607 13.0607L13.0607 21.0607C12.4749 21.6464 11.5251 21.6464 10.9393 21.0607C10.3536 20.4749 10.3536 19.5251 10.9393 18.9393L18.9393 10.9393C19.5251 10.3536 20.4749 10.3536 21.0607 10.9393Z" fill="#889099"/>
<path fill-rule="evenodd" clip-rule="evenodd" d="M10.9393 10.9393C11.5251 10.3536 12.4749 10.3536 13.0607 10.9393L21.0607 18.9393C21.6464 19.5251 21.6464 20.4749 21.0607 21.0607C20.4749 21.6464 19.5251 21.6464 18.9393 21.0607L10.9393 13.0607C10.3536 12.4749 10.3536 11.5251 10.9393 10.9393Z" fill="#889099"/>
</svg>
