<svg xmlns="http://www.w3.org/2000/svg" width="20" height="20" viewBox="0 0 20 20" fill="currentColor">
<path d="M8.95027 2.07066C9.59894 1.69227 10.4011 1.69227 11.0497 2.07066L16.4664 5.23038C17.1064 5.60374 17.5 6.28895 17.5 7.02992V12.97C17.5 13.711 17.1064 14.3962 16.4664 14.7696L11.0497 17.9293C10.4011 18.3077 9.59894 18.3077 8.95027 17.9293L3.5336 14.7696C2.89356 14.3962 2.5 13.711 2.5 12.97V7.02992C2.5 6.28895 2.89357 5.60374 3.5336 5.23038L8.95027 2.07066Z"/>
<path fill-rule="evenodd" clip-rule="evenodd" d="M9.16732 10.4167L9.16732 6.87508C9.16732 6.41484 9.54041 6.04175 10.0007 6.04175C10.4609 6.04175 10.834 6.41484 10.834 6.87508L10.834 10.4167C10.834 10.877 10.4609 11.2501 10.0007 11.2501C9.54041 11.2501 9.16732 10.877 9.16732 10.4167Z" fill="white"/>
<path d="M11.0423 13.3334C11.0423 13.9087 10.5759 14.3751 10.0007 14.3751C9.42535 14.3751 8.95898 13.9087 8.95898 13.3334C8.95898 12.7581 9.42535 12.2917 10.0007 12.2917C10.5759 12.2917 11.0423 12.7581 11.0423 13.3334Z" fill="white"/>
</svg>