<svg xmlns="http://www.w3.org/2000/svg" width="20" height="20" viewBox="0 0 20 20" fill="none">
<path fill-rule="evenodd" clip-rule="evenodd" d="M10 4.375C6.8934 4.375 4.375 6.8934 4.375 10C4.375 13.1066 6.8934 15.625 10 15.625C13.1066 15.625 15.625 13.1066 15.625 10C15.625 6.8934 13.1066 4.375 10 4.375ZM1.875 10C1.875 5.51269 5.51269 1.875 10 1.875C14.4873 1.875 18.125 5.51269 18.125 10C18.125 14.4873 14.4873 18.125 10 18.125C5.51269 18.125 1.875 14.4873 1.875 10Z" />
<path fill-rule="evenodd" clip-rule="evenodd" d="M4.2536 4.2536C4.74175 3.76544 5.53321 3.76544 6.02137 4.2536L15.7466 13.9789C16.2348 14.467 16.2348 15.2585 15.7466 15.7466C15.2585 16.2348 14.467 16.2348 13.9789 15.7466L4.2536 6.02137C3.76544 5.53321 3.76544 4.74175 4.2536 4.2536Z" />
</svg>
