<svg xmlns="http://www.w3.org/2000/svg" width="20" height="20" viewBox="0 0 20 20" fill="currentColor">
<circle cx="10" cy="10" r="8.125" />
<path d="M6.33865 8.82389C6.38053 8.71907 6.44265 8.62351 6.52147 8.5427C6.60028 8.46189 6.69425 8.39739 6.79799 8.3529C6.90174 8.30841 7.01323 8.28479 7.12611 8.2834C7.23898 8.28201 7.35103 8.30287 7.45584 8.34479L9.14165 9.0194V7.42383C9.14165 7.19591 9.23219 6.97732 9.39335 6.81616C9.55452 6.65499 9.7731 6.56445 10.001 6.56445C10.2289 6.56445 10.4475 6.65499 10.6087 6.81616C10.7699 6.97732 10.8604 7.19591 10.8604 7.42383V9.0194L12.5462 8.34479C12.7574 8.26216 12.9926 8.26633 13.2007 8.35641C13.4088 8.44648 13.5729 8.61515 13.6572 8.82566C13.7415 9.03618 13.7391 9.27147 13.6507 9.48026C13.5622 9.68906 13.3949 9.85444 13.185 9.94036L11.3617 10.6701L12.4073 12.0645C12.475 12.1547 12.5243 12.2575 12.5523 12.3668C12.5803 12.4761 12.5865 12.5899 12.5705 12.7016C12.5545 12.8133 12.5167 12.9208 12.4592 13.0179C12.4017 13.115 12.3257 13.1999 12.2354 13.2676C12.1451 13.3353 12.0424 13.3846 11.9331 13.4126C11.8237 13.4406 11.71 13.4468 11.5982 13.4308C11.4865 13.4149 11.379 13.377 11.2819 13.3195C11.1848 13.2621 11.1 13.186 11.0323 13.0957L10.001 11.7207L8.96977 13.0957C8.90206 13.186 8.81723 13.2621 8.72012 13.3195C8.62301 13.377 8.51553 13.4149 8.40381 13.4308C8.29208 13.4468 8.17831 13.4406 8.06899 13.4126C7.95967 13.3846 7.85693 13.3353 7.76665 13.2676C7.67636 13.1999 7.6003 13.115 7.5428 13.0179C7.4853 12.9208 7.44749 12.8133 7.43153 12.7016C7.41557 12.5899 7.42177 12.4761 7.44978 12.3668C7.47779 12.2575 7.52706 12.1547 7.59477 12.0645L8.64034 10.6701L6.81704 9.94036C6.60563 9.85564 6.4365 9.69047 6.3468 9.48113C6.2571 9.27178 6.25417 9.0354 6.33865 8.82389Z" fill="white"/>
</svg>