<svg xmlns="http://www.w3.org/2000/svg" width="20" height="20" viewBox="0 0 20 20" fill="currentColor">
<circle cx="10" cy="10" r="8.125" />
<path d="M7.29036 9.99992C7.29036 10.5752 6.82399 11.0416 6.2487 11.0416C5.6734 11.0416 5.20703 10.5752 5.20703 9.99992C5.20703 9.42462 5.6734 8.95825 6.2487 8.95825C6.82399 8.95825 7.29036 9.42462 7.29036 9.99992Z" fill="white"/>
<path d="M11.0404 9.99992C11.0404 10.5752 10.574 11.0416 9.9987 11.0416C9.4234 11.0416 8.95703 10.5752 8.95703 9.99992C8.95703 9.42462 9.4234 8.95825 9.9987 8.95825C10.574 8.95825 11.0404 9.42462 11.0404 9.99992Z" fill="white"/>
<path d="M14.7904 9.99992C14.7904 10.5752 14.324 11.0416 13.7487 11.0416C13.1734 11.0416 12.707 10.5752 12.707 9.99992C12.707 9.42462 13.1734 8.95825 13.7487 8.95825C14.324 8.95825 14.7904 9.42462 14.7904 9.99992Z" fill="white"/>
</svg>