<svg xmlns="http://www.w3.org/2000/svg" width="20" height="20" viewBox="0 0 20 20" fill="currentColor">
<path d="M15 2.5H5C4.33696 2.5 3.70107 2.76339 3.23223 3.23223C2.76339 3.70107 2.5 4.33696 2.5 5V15C2.5 15.663 2.76339 16.2989 3.23223 16.7678C3.70107 17.2366 4.33696 17.5 5 17.5H15C15.663 17.5 16.2989 17.2366 16.7678 16.7678C17.2366 16.2989 17.5 15.663 17.5 15V5C17.5 4.33696 17.2366 3.70107 16.7678 3.23223C16.2989 2.76339 15.663 2.5 15 2.5Z" />
<path d="M8.4389 6.47917C8.4389 6.24842 8.51221 6.02286 8.64956 5.831C8.78691 5.63914 8.98214 5.48961 9.21054 5.40131C9.43895 5.31301 9.69029 5.2899 9.93276 5.33492C10.1752 5.37993 10.398 5.49105 10.5728 5.65421C10.7476 5.81737 10.8666 6.02525 10.9149 6.25156C10.9631 6.47787 10.9384 6.71245 10.8437 6.92563C10.7491 7.13881 10.5889 7.32102 10.3834 7.44921C10.1778 7.57741 9.93613 7.64583 9.6889 7.64583C9.35738 7.64583 9.03944 7.52292 8.80502 7.30412C8.5706 7.08533 8.4389 6.78859 8.4389 6.47917ZM10.9389 12.3621V9.97917C10.9389 9.59239 10.7743 9.22146 10.4813 8.94797C10.1882 8.67448 9.7908 8.52083 9.3764 8.52083C9.155 8.52053 8.94063 8.59336 8.77125 8.72644C8.60188 8.85951 8.48843 9.04424 8.451 9.24791C8.41357 9.45157 8.45457 9.66103 8.56675 9.83918C8.67893 10.0173 8.85504 10.1527 9.0639 10.2213V12.6042C9.0639 12.9909 9.22852 13.3619 9.52154 13.6354C9.81457 13.9089 10.212 14.0625 10.6264 14.0625C10.8478 14.0628 11.0622 13.99 11.2315 13.8569C11.4009 13.7238 11.5144 13.5391 11.5518 13.3354C11.5892 13.1318 11.5482 12.9223 11.436 12.7442C11.3239 12.566 11.1478 12.4307 10.9389 12.3621Z" fill="white"/>
</svg>