<svg xmlns="http://www.w3.org/2000/svg" width="20" height="20" viewBox="0 0 20 20" fill="currentColor">
<circle cx="10" cy="10" r="8.125" />
<path fill-rule="evenodd" clip-rule="evenodd" d="M9.0446 10.484C8.70688 10.2544 8.25936 10.2698 7.93823 10.5221L7.26675 11.0497C6.85962 11.3696 6.27025 11.2989 5.95037 10.8917C5.63048 10.4846 5.7012 9.89524 6.10833 9.57536L6.77982 9.04776C7.74321 8.29081 9.08577 8.24461 10.0989 8.93354L10.9555 9.516C11.2932 9.74564 11.7407 9.73025 12.0619 9.47794L12.7333 8.95035C13.1405 8.63047 13.7298 8.7012 14.0497 9.10833C14.3696 9.51546 14.2989 10.1048 13.8917 10.4247L13.2203 10.9523C12.2569 11.7092 10.9143 11.7554 9.90117 11.0665L9.0446 10.484Z" fill="white"/>
</svg>