<svg xmlns="http://www.w3.org/2000/svg" width="20" height="20" viewBox="0 0 20 20" fill="currentColor">
<path d="M8.86279 1.55234C9.56552 1.14922 10.4345 1.14922 11.1372 1.55235L17.0053 4.91862C17.6986 5.31638 18.125 6.04638 18.125 6.83579V13.1642C18.125 13.9536 17.6986 14.6836 17.0053 15.0814L11.1372 18.4477C10.4345 18.8508 9.56552 18.8508 8.86279 18.4477L2.99473 15.0814C2.30136 14.6836 1.875 13.9536 1.875 13.1642V6.83579C1.875 6.04638 2.30136 5.31638 2.99474 4.91862L8.86279 1.55234Z" />
<path d="M12.5917 8.76276L11.3561 10L12.5941 11.2372C12.774 11.4171 12.875 11.661 12.875 11.9153C12.875 12.1696 12.774 12.4135 12.5941 12.5933C12.4143 12.7732 12.1704 12.8742 11.9161 12.8742C11.6618 12.8742 11.4179 12.7732 11.238 12.5933L10 11.3561L8.76276 12.5941C8.67371 12.6832 8.568 12.7538 8.45166 12.802C8.33532 12.8502 8.21063 12.875 8.08471 12.875C7.95878 12.875 7.83409 12.8502 7.71775 12.802C7.60141 12.7538 7.4957 12.6832 7.40666 12.5941C7.31761 12.5051 7.24698 12.3994 7.19879 12.283C7.1506 12.1667 7.1258 12.042 7.1258 11.9161C7.1258 11.7902 7.1506 11.6655 7.19879 11.5491C7.24698 11.4328 7.31761 11.3271 7.40666 11.238L8.6439 10L7.40586 8.76276C7.31682 8.67371 7.24618 8.568 7.19799 8.45166C7.1498 8.33532 7.125 8.21063 7.125 8.08471C7.125 7.95878 7.1498 7.83409 7.19799 7.71775C7.24618 7.60141 7.31682 7.4957 7.40586 7.40666C7.4949 7.31761 7.60061 7.24698 7.71695 7.19879C7.83329 7.1506 7.95798 7.1258 8.08391 7.1258C8.20983 7.1258 8.33453 7.1506 8.45087 7.19879C8.56721 7.24698 8.67292 7.31761 8.76196 7.40666L10 8.6439L11.2372 7.40586C11.4171 7.22603 11.661 7.125 11.9153 7.125C12.1696 7.125 12.4135 7.22603 12.5933 7.40586C12.7732 7.58569 12.8742 7.82959 12.8742 8.08391C12.8742 8.33823 12.7732 8.58213 12.5933 8.76196L12.5917 8.76276Z" fill="white"/>
</svg>