<svg xmlns="http://www.w3.org/2000/svg" width="20" height="20" viewBox="0 0 20 20" fill="none">
<circle cx="10" cy="10" r="8.125" fill="#139BEB"/>
<path d="M13.4956 7.68226C13.5762 7.76262 13.6402 7.8581 13.6839 7.96324C13.7275 8.06838 13.75 8.1811 13.75 8.29494C13.75 8.40879 13.7275 8.52151 13.6839 8.62665C13.6402 8.73179 13.5762 8.82727 13.4956 8.90763L9.45908 12.9442C9.37873 13.0248 9.28324 13.0888 9.1781 13.1324C9.07296 13.1761 8.96024 13.1986 8.8464 13.1986C8.73256 13.1986 8.61984 13.1761 8.5147 13.1324C8.40956 13.0888 8.31407 13.0248 8.23371 12.9442L6.50378 11.2142C6.42332 11.1338 6.3595 11.0382 6.31596 10.9331C6.27241 10.828 6.25 10.7153 6.25 10.6015C6.25 10.4877 6.27241 10.3751 6.31596 10.2699C6.3595 10.1648 6.42332 10.0693 6.50378 9.98884C6.58424 9.90839 6.67976 9.84456 6.78488 9.80102C6.89001 9.75747 7.00268 9.73506 7.11647 9.73506C7.23025 9.73506 7.34292 9.75747 7.44805 9.80102C7.55317 9.84456 7.64869 9.90839 7.72915 9.98884L8.84712 11.1054L12.2717 7.6801C12.3521 7.59982 12.4476 7.53618 12.5527 7.49284C12.6578 7.4495 12.7704 7.42729 12.8841 7.42749C12.9977 7.42769 13.1103 7.4503 13.2152 7.49401C13.3201 7.53773 13.4154 7.60169 13.4956 7.68226Z" fill="white"/>
</svg>