<svg xmlns="http://www.w3.org/2000/svg" width="20" height="20" viewBox="0 0 20 20" fill="currentColor">
<path d="M18.1023 8.38351L11.6205 1.9017C11.1907 1.47193 10.6078 1.23049 10 1.23049C9.39221 1.23049 8.80932 1.47193 8.37955 1.9017L1.89774 8.38351C1.46796 8.81329 1.22652 9.39618 1.22652 10.004C1.22652 10.6118 1.46796 11.1947 1.89774 11.6244L8.37955 18.1062C8.80932 18.536 9.39221 18.7774 10 18.7774C10.6078 18.7774 11.1907 18.536 11.6205 18.1062L18.1023 11.6244C18.532 11.1947 18.7735 10.6118 18.7735 10.004C18.7735 9.39618 18.532 8.81329 18.1023 8.38351Z" />
<path d="M9.1237 10.2917V6.5C9.1237 6.26794 9.21589 6.04538 9.37998 5.88128C9.54407 5.71719 9.76663 5.625 9.9987 5.625C10.2308 5.625 10.4533 5.71719 10.6174 5.88128C10.7815 6.04538 10.8737 6.26794 10.8737 6.5V10.2917C10.8737 10.5237 10.7815 10.7463 10.6174 10.9104C10.4533 11.0745 10.2308 11.1667 9.9987 11.1667C9.76663 11.1667 9.54407 11.0745 9.37998 10.9104C9.21589 10.7463 9.1237 10.5237 9.1237 10.2917ZM11.1654 13.2083C11.1654 13.4391 11.0969 13.6646 10.9687 13.8565C10.8406 14.0484 10.6583 14.1979 10.4452 14.2862C10.232 14.3745 9.9974 14.3976 9.77109 14.3526C9.54478 14.3076 9.3369 14.1965 9.17374 14.0333C9.01058 13.8701 8.89947 13.6622 8.85445 13.4359C8.80943 13.2096 8.83254 12.975 8.92084 12.7619C9.00914 12.5487 9.15868 12.3665 9.35053 12.2383C9.54239 12.1101 9.76795 12.0417 9.9987 12.0417C10.3081 12.0417 10.6049 12.1646 10.8237 12.3834C11.0424 12.6022 11.1654 12.8989 11.1654 13.2083Z" fill="white"/>
</svg>