<svg xmlns="http://www.w3.org/2000/svg" width="18" height="18" viewBox="0 0 18 18" fill="none">
<path d="M16.6422 13.2187L10.4618 2.53117C10.3138 2.27413 10.1007 2.06063 9.84394 1.91217C9.58719 1.76371 9.29584 1.68555 8.99926 1.68555C8.70267 1.68555 8.41132 1.76371 8.15457 1.91217C7.89781 2.06063 7.68472 2.27413 7.53676 2.53117L1.35629 13.2187C1.20615 13.4744 1.12636 13.7653 1.12502 14.0619C1.12368 14.3584 1.20084 14.6501 1.34866 14.9071C1.49648 15.1642 1.7097 15.3776 1.96667 15.5256C2.22364 15.6737 2.51521 15.751 2.81176 15.7499H15.1868C15.4833 15.751 15.7749 15.6737 16.0318 15.5256C16.2888 15.3776 16.502 15.1642 16.6499 14.9071C16.7977 14.6501 16.8748 14.3584 16.8735 14.0619C16.8722 13.7653 16.7924 13.4744 16.6422 13.2187Z" />
<path d="M8.21172 9.825V6.4125C8.21172 6.20364 8.29469 6.00334 8.44237 5.85565C8.59006 5.70797 8.79036 5.625 8.99922 5.625C9.20808 5.625 9.40838 5.70797 9.55607 5.85565C9.70375 6.00334 9.78672 6.20364 9.78672 6.4125V9.825C9.78672 10.0339 9.70375 10.2342 9.55607 10.3818C9.40838 10.5295 9.20808 10.6125 8.99922 10.6125C8.79036 10.6125 8.59006 10.5295 8.44237 10.3818C8.29469 10.2342 8.21172 10.0339 8.21172 9.825ZM10.0492 12.45C10.0492 12.6577 9.98764 12.8607 9.87226 13.0333C9.75689 13.206 9.5929 13.3406 9.40104 13.4201C9.20917 13.4995 8.99805 13.5203 8.79437 13.4798C8.59069 13.4393 8.4036 13.3393 8.25676 13.1925C8.10991 13.0456 8.00991 12.8585 7.96939 12.6548C7.92888 12.4512 7.94967 12.24 8.02915 12.0482C8.10862 11.8563 8.2432 11.6923 8.41587 11.577C8.58854 11.4616 8.79155 11.4 8.99922 11.4C9.2777 11.4 9.54477 11.5106 9.74168 11.7075C9.93859 11.9045 10.0492 12.1715 10.0492 12.45Z" />
</svg>