<svg width="24" height="24" viewBox="0 0 24 24" fill="none" xmlns="http://www.w3.org/2000/svg">
<g opacity="0.7">
<path d="M15.6416 5.15713C15.8515 4.69678 15.9766 4.18968 15.997 3.65576C17.8946 4.56641 19.4335 6.10532 20.3442 8.00295C19.8103 8.0234 19.3032 8.1485 18.8428 8.35832C18.1181 6.99944 17.0005 5.88181 15.6416 5.15713Z" fill="#889099"/>
<path d="M18.8428 15.6416C18.1181 17.0005 17.0005 18.1181 15.6416 18.8428C15.8515 19.3032 15.9766 19.8103 15.997 20.3442C17.8946 19.4335 19.4335 17.8946 20.3442 15.997C19.8103 15.9765 19.3032 15.8515 18.8428 15.6416Z" fill="#889099"/>
<path d="M5.15713 15.6416C5.88181 17.0005 6.99944 18.1181 8.35832 18.8428C8.1485 19.3032 8.0234 19.8103 8.00296 20.3442C6.10532 19.4335 4.56641 17.8946 3.65576 15.997C4.18968 15.9765 4.69678 15.8515 5.15713 15.6416Z" fill="#889099"/>
<path d="M5.15713 8.35832C5.88181 6.99943 6.99944 5.88181 8.35832 5.15713C8.1485 4.69678 8.0234 4.18968 8.00295 3.65576C6.10532 4.56641 4.56641 6.10532 3.65576 8.00295C4.18968 8.0234 4.69678 8.1485 5.15713 8.35832Z" fill="#889099"/>
</g>
<circle cx="12" cy="3.5" r="2" fill="#889099"/>
<circle cx="20.5" cy="12" r="2" fill="#889099"/>
<circle cx="12" cy="20.5" r="2" fill="#889099"/>
<circle cx="3.5" cy="12" r="2" fill="#889099"/>
<path opacity="0.4" fill-rule="evenodd" clip-rule="evenodd" d="M8.50536 8.50536C8.66306 7.47586 8.88931 6.53934 9.17144 5.73998C9.45924 4.92455 9.81927 4.21133 10.2564 3.68746C10.69 3.1678 11.2757 2.75 12 2.75C12.7243 2.75 13.31 3.1678 13.7436 3.68746C14.1807 4.21133 14.5408 4.92455 14.8286 5.73998C15.1107 6.53934 15.3369 7.47586 15.4946 8.50536C16.5241 8.66306 17.4607 8.88931 18.26 9.17144C19.0755 9.45924 19.7887 9.81927 20.3125 10.2564C20.8322 10.69 21.25 11.2757 21.25 12C21.25 12.7243 20.8322 13.31 20.3125 13.7436C19.7887 14.1807 19.0755 14.5408 18.26 14.8286C17.4607 15.1107 16.5241 15.3369 15.4946 15.4946C15.3369 16.5241 15.1107 17.4607 14.8286 18.26C14.5408 19.0755 14.1807 19.7887 13.7436 20.3125C13.31 20.8322 12.7243 21.25 12 21.25C11.2757 21.25 10.69 20.8322 10.2564 20.3125C9.81927 19.7887 9.45924 19.0755 9.17144 18.26C8.88931 17.4607 8.66306 16.5241 8.50536 15.4946C7.47586 15.3369 6.53934 15.1107 5.73998 14.8286C4.92455 14.5408 4.21133 14.1807 3.68746 13.7436C3.1678 13.31 2.75 12.7243 2.75 12C2.75 11.2757 3.1678 10.69 3.68746 10.2564C4.21133 9.81927 4.92455 9.45924 5.73998 9.17144C6.53934 8.88931 7.47586 8.66306 8.50536 8.50536ZM10.055 8.32644C10.1935 7.54356 10.3741 6.83936 10.5859 6.23921C10.841 5.51644 11.1274 4.98486 11.4081 4.64849C11.6923 4.3079 11.8959 4.25 12 4.25C12.1041 4.25 12.3077 4.3079 12.5919 4.64849C12.8726 4.98486 13.159 5.51644 13.4141 6.23921C13.6259 6.83936 13.8065 7.54356 13.945 8.32644C13.317 8.27625 12.666 8.25 12 8.25C11.334 8.25 10.683 8.27625 10.055 8.32644ZM8.32644 13.945C7.54356 13.8065 6.83936 13.6259 6.23921 13.4141C5.51644 13.159 4.98486 12.8726 4.64849 12.5919C4.3079 12.3077 4.25 12.1041 4.25 12C4.25 11.8959 4.3079 11.6923 4.64849 11.4081C4.98486 11.1274 5.51644 10.841 6.23921 10.5859C6.83936 10.3741 7.54356 10.1935 8.32644 10.055C8.27625 10.683 8.25 11.334 8.25 12C8.25 12.666 8.27625 13.317 8.32644 13.945ZM9.85007 14.1499C9.78509 13.468 9.75 12.7473 9.75 12C9.75 11.2527 9.78509 10.532 9.85007 9.85007C10.532 9.78509 11.2527 9.75 12 9.75C12.7473 9.75 13.468 9.78509 14.1499 9.85007C14.2149 10.532 14.25 11.2527 14.25 12C14.25 12.7473 14.2149 13.468 14.1499 14.1499C13.468 14.2149 12.7473 14.25 12 14.25C11.2527 14.25 10.532 14.2149 9.85007 14.1499ZM10.055 15.6736C10.1935 16.4564 10.3741 17.1606 10.5859 17.7608C10.841 18.4836 11.1274 19.0151 11.4081 19.3515C11.6923 19.6921 11.8959 19.75 12 19.75C12.1041 19.75 12.3077 19.6921 12.5919 19.3515C12.8726 19.0151 13.159 18.4836 13.4141 17.7608C13.6259 17.1606 13.8065 16.4564 13.945 15.6736C13.317 15.7238 12.666 15.75 12 15.75C11.334 15.75 10.683 15.7238 10.055 15.6736ZM15.6736 13.945C16.4564 13.8065 17.1606 13.6259 17.7608 13.4141C18.4836 13.159 19.0151 12.8726 19.3515 12.5919C19.6921 12.3077 19.75 12.1041 19.75 12C19.75 11.8959 19.6921 11.6923 19.3515 11.4081C19.0151 11.1274 18.4836 10.841 17.7608 10.5859C17.1606 10.3741 16.4564 10.1935 15.6736 10.055C15.7238 10.683 15.75 11.334 15.75 12C15.75 12.666 15.7238 13.317 15.6736 13.945Z" fill="#889099"/>
</svg>
