<svg width="16" height="16" viewBox="0 0 16 16" fill="none" xmlns="http://www.w3.org/2000/svg">
<path fill-rule="evenodd" clip-rule="evenodd" d="M8.33329 3.16797C8.24124 3.16797 8.16663 3.24259 8.16663 3.33464V7.5013H13.8333V3.33464C13.8333 3.24259 13.7587 3.16797 13.6666 3.16797H8.33329ZM13.8333 8.5013H8.16663V12.668C8.16663 12.76 8.24124 12.8346 8.33329 12.8346H13.6666C13.7587 12.8346 13.8333 12.76 13.8333 12.668V8.5013ZM7.16663 8.5013V12.668C7.16663 13.3123 7.68896 13.8346 8.33329 13.8346H13.6666C14.311 13.8346 14.8333 13.3123 14.8333 12.668V3.33464C14.8333 2.6903 14.311 2.16797 13.6666 2.16797H8.33329C7.68896 2.16797 7.16663 2.6903 7.16663 3.33464V7.5013H1.66663V8.5013H7.16663Z" />
<path d="M3.33333 8.00123C3.33333 8.9217 2.58714 9.66789 1.66667 9.66789C0.746192 9.66789 0 8.9217 0 8.00123C0 7.08075 0.746192 6.33456 1.66667 6.33456C2.58714 6.33456 3.33333 7.08075 3.33333 8.00123Z" />
<path d="M7.31311 6.02145C7.50838 5.82618 7.82496 5.82618 8.02022 6.02145L9.64645 7.64767C9.84171 7.84294 9.84171 8.15952 9.64645 8.35478L8.02022 9.98101C7.82496 10.1763 7.50838 10.1763 7.31311 9.98101L5.68689 8.35478C5.49162 8.15952 5.49162 7.84294 5.68689 7.64767L7.31311 6.02145Z" />
<path d="M12.6667 7.16789C12.6667 6.89175 12.8905 6.66789 13.1667 6.66789H15.5C15.7761 6.66789 16 6.89175 16 7.16789V8.83456C16 9.1107 15.7761 9.33456 15.5 9.33456H13.1667C12.8905 9.33456 12.6667 9.1107 12.6667 8.83456V7.16789Z" />
<path d="M9.33333 12.4987C9.33333 12.2226 9.55719 11.9987 9.83333 11.9987H12.1667C12.4428 11.9987 12.6667 12.2226 12.6667 12.4987V14.1654C12.6667 14.4415 12.4428 14.6654 12.1667 14.6654H9.83333C9.55719 14.6654 9.33333 14.4415 9.33333 14.1654V12.4987Z" />
<path d="M6 1.83203C6 1.55589 6.22386 1.33203 6.5 1.33203H8.83333C9.10948 1.33203 9.33333 1.55589 9.33333 1.83203V3.4987C9.33333 3.77484 9.10948 3.9987 8.83333 3.9987H6.5C6.22386 3.9987 6 3.77484 6 3.4987V1.83203Z" />
</svg>