<svg width="24" height="24" viewBox="0 0 24 24" fill="none" xmlns="http://www.w3.org/2000/svg">
<path opacity="0.4" d="M11 18.3787C11 18.9309 11.4477 19.3787 12 19.3787C12.5523 19.3787 13 18.9309 13 18.3787V17.3787H18V18.3787C18 18.9309 18.4477 19.3787 19 19.3787C19.5523 19.3787 20 18.9309 20 18.3787V16.3787C20 15.8264 19.5523 15.3787 19 15.3787H13V13.8787H11V15.3787H5C4.44772 15.3787 4 15.8264 4 16.3787V18.3787C4 18.9309 4.44772 19.3787 5 19.3787C5.55228 19.3787 6 18.9309 6 18.3787V17.3787H11V18.3787Z" fill="#889099"/>
<path d="M10.9391 4.43934C11.5249 3.85355 12.4746 3.85355 13.0604 4.43934L15.9391 7.31802C16.5249 7.90381 16.5249 8.85355 15.9391 9.43934L13.0604 12.318C12.4746 12.9038 11.5249 12.9038 10.9391 12.318L8.06043 9.43934C7.47465 8.85355 7.47465 7.90381 8.06043 7.31802L10.9391 4.43934Z" fill="#889099"/>
</svg>
