<svg width="24" height="24" viewBox="0 0 24 24" fill="none" xmlns="http://www.w3.org/2000/svg">
<path opacity="0.4" d="M12 8C12 9.40141 11.2793 10.6345 10.1883 11.3489C10.9796 11.6091 11.7086 12.0065 12.3471 12.5131C11.957 13.0268 11.7361 13.6615 11.7361 14.3277V18.673C11.7361 18.783 11.7421 18.8921 11.7539 19H2C1.44771 19 1 18.5523 1 18C1 14.8982 3.01741 12.2677 5.81167 11.3489C4.72069 10.6345 4 9.40141 4 8C4 5.79086 5.79086 4 8 4C10.2091 4 12 5.79086 12 8Z" fill="#6250D4"/>
<path fill-rule="evenodd" clip-rule="evenodd" d="M18.9995 11.289C18.6901 11.1104 18.3089 11.1104 17.9995 11.289L14.2363 13.4617C13.9269 13.6403 13.7363 13.9704 13.7363 14.3277V18.673C13.7363 19.0302 13.9269 19.3604 14.2363 19.539L17.9995 21.7117C18.3089 21.8903 18.6901 21.8903 18.9995 21.7117L22.7626 19.539C23.072 19.3604 23.2626 19.0302 23.2626 18.673V14.3277C23.2626 13.9704 23.072 13.6403 22.7626 13.4617L18.9995 11.289ZM18.5 18.2507C19.4665 18.2507 20.25 17.4672 20.25 16.5007C20.25 15.5342 19.4665 14.7507 18.5 14.7507C17.5335 14.7507 16.75 15.5342 16.75 16.5007C16.75 17.4672 17.5335 18.2507 18.5 18.2507Z" fill="#6250D4"/>
</svg>
