<svg width="32" height="32" viewBox="0 0 32 32" fill="none" xmlns="http://www.w3.org/2000/svg">
<g opacity="0.4">
<path d="M16.75 14.7007V7H15.25V14.7007C15.4706 14.573 15.7268 14.5 16 14.5C16.2732 14.5 16.5294 14.573 16.75 14.7007Z" fill="#889099"/>
<path d="M16.75 14.7007C17.1981 14.9601 17.5 15.4449 17.5 16C17.5 16.555 17.1985 17.0397 16.7504 17.2991L23.4195 21.1495L24.1695 19.8505L17.5 16L24.1695 12.1495L23.4195 10.8505L16.75 14.7007Z" fill="#889099"/>
<path d="M16.7504 17.2991C16.5298 17.4267 16.2732 17.5 16 17.5C15.7268 17.5 15.4706 17.427 15.25 17.2993V25H16.75L16.7504 17.2991Z" fill="#889099"/>
<path d="M15.25 17.2993C14.8018 17.04 14.5001 16.5553 14.5 16.0002L7.83105 19.8505L8.58105 21.1495L15.25 17.2993Z" fill="#889099"/>
<path d="M14.5 16.0002C14.5001 15.4451 14.8018 14.96 15.25 14.7007L8.58105 10.8505L7.83105 12.1495L14.5 16.0002Z" fill="#889099"/>
</g>
<circle cx="16" cy="8" r="1.5" fill="#889099"/>
<circle cx="23.5" cy="11.75" r="1.5" fill="#889099"/>
<circle cx="8.5" cy="11.75" r="1.5" fill="#889099"/>
<circle cx="23.5" cy="20.25" r="1.5" fill="#889099"/>
<circle cx="8.5" cy="20.25" r="1.5" fill="#889099"/>
<circle cx="16" cy="24" r="1.5" fill="#889099"/>
<path fill-rule="evenodd" clip-rule="evenodd" d="M16 19.5C17.933 19.5 19.5 17.933 19.5 16C19.5 14.067 17.933 12.5 16 12.5C14.067 12.5 12.5 14.067 12.5 16C12.5 17.933 14.067 19.5 16 19.5ZM16 17.5C16.8284 17.5 17.5 16.8284 17.5 16C17.5 15.1716 16.8284 14.5 16 14.5C15.1716 14.5 14.5 15.1716 14.5 16C14.5 16.8284 15.1716 17.5 16 17.5Z" fill="#889099"/>
<rect opacity="0.4" x="1" y="1" width="30" height="30" rx="7" stroke="#889099" stroke-width="2"/>
</svg>
