<svg width="24" height="24" viewBox="0 0 24 24" fill="none" xmlns="http://www.w3.org/2000/svg">
<path opacity="0.4" d="M3 14.5C3 13.6716 3.67157 13 4.5 13C5.32843 13 6 13.6716 6 14.5V19.5C6 20.3284 5.32843 21 4.5 21C3.67157 21 3 20.3284 3 19.5V14.5Z" fill="#889099"/>
<path d="M8 9.5C8 8.67157 8.67157 8 9.5 8C10.3284 8 11 8.67157 11 9.5V19.5C11 20.3284 10.3284 21 9.5 21C8.67157 21 8 20.3284 8 19.5V9.5Z" fill="#889099"/>
<path opacity="0.7" d="M13 12.5C13 11.6716 13.6716 11 14.5 11C15.3284 11 16 11.6716 16 12.5V19.5C16 20.3284 15.3284 21 14.5 21C13.6716 21 13 20.3284 13 19.5V12.5Z" fill="#889099"/>
<path d="M18 7.5C18 6.67157 18.6716 6 19.5 6C20.3284 6 21 6.67157 21 7.5V19.5C21 20.3284 20.3284 21 19.5 21C18.6716 21 18 20.3284 18 19.5V7.5Z" fill="#889099"/>
</svg>
