<svg width="18" height="20" viewBox="0 0 18 20" fill="none" xmlns="http://www.w3.org/2000/svg">
  <path
    d="M7.74032 0.48484C8.51873 0.0307692 9.48127 0.0307698 10.2597 0.48484L16.7597 4.27651C17.5277 4.72453 18 5.54679 18 6.43595V13.5641C18 14.4533 17.5277 15.2755 16.7597 15.7235L10.2597 19.5152C9.48127 19.9693 8.51873 19.9693 7.74032 19.5152L1.24032 15.7235C0.472277 15.2755 0 14.4533 0 13.5641V6.43595C0 5.54679 0.472278 4.72453 1.24032 4.27651L7.74032 0.48484Z"
    fill="#cc2d37" class="a-icon-bg" />
  <path fill-rule="evenodd" clip-rule="evenodd"
    d="M8 10.5L8 6.25C8 5.69772 8.44771 5.25 9 5.25C9.55228 5.25 10 5.69772 10 6.25L10 10.5C10 11.0523 9.55228 11.5 9 11.5C8.44772 11.5 8 11.0523 8 10.5Z"
    fill="white" class="a-icon-text" />
  <path
    d="M10.25 14C10.25 14.6904 9.69036 15.25 9 15.25C8.30964 15.25 7.75 14.6904 7.75 14C7.75 13.3096 8.30964 12.75 9 12.75C9.69036 12.75 10.25 13.3096 10.25 14Z"
    fill="white" class="a-icon-text" />
</svg>
