<svg width="20" height="20" viewBox="0 0 20 20" fill="none" xmlns="http://www.w3.org/2000/svg">
  <path
    d="M19.75 10C19.75 15.3848 15.3848 19.75 10 19.75C4.61522 19.75 0.25 15.3848 0.25 10C0.25 4.61522 4.61522 0.25 10 0.25C15.3848 0.25 19.75 4.61522 19.75 10Z"
    fill="#45991F" class="a-icon-bg" />
  <path fill-rule="evenodd" clip-rule="evenodd"
    d="M14.457 6.79279C14.8476 7.18326 14.8477 7.81643 14.4572 8.20701L9.20879 13.4569C8.81839 13.8474 8.18535 13.8476 7.79475 13.4573L5.54316 11.2074C5.15249 10.817 5.15225 10.1838 5.54262 9.79316C5.933 9.40249 6.56617 9.40225 6.95684 9.79262L8.50122 11.3358L13.0428 6.79299C13.4333 6.40241 14.0664 6.40232 14.457 6.79279Z"
    fill="white" class="a-icon-text" />
</svg>
