<svg width="20" height="19" viewBox="0 0 20 19" fill="none" xmlns="http://www.w3.org/2000/svg">
  <path
    d="M7.82473 1.34161C8.7822 -0.349225 11.2181 -0.349222 12.1756 1.34162L19.6369 14.518C20.5807 16.1846 19.3767 18.2499 17.4615 18.2499H2.53882C0.623589 18.2499 -0.580337 16.1846 0.363389 14.518L7.82473 1.34161Z"
    fill="#D9B216" />
  <path fill-rule="evenodd" clip-rule="evenodd"
    d="M9 10.75L9 6.5C9 5.94772 9.44771 5.5 10 5.5C10.5523 5.5 11 5.94772 11 6.5L11 10.75C11 11.3023 10.5523 11.75 10 11.75C9.44772 11.75 9 11.3023 9 10.75Z"
    fill="#464C54" />
  <path
    d="M11.25 14.25C11.25 14.9404 10.6904 15.5 10 15.5C9.30964 15.5 8.75 14.9404 8.75 14.25C8.75 13.5596 9.30964 13 10 13C10.6904 13 11.25 13.5596 11.25 14.25Z"
    fill="#464C54" />
</svg>
