<svg width="32" height="32" viewBox="0 0 32 32" fill="none" xmlns="http://www.w3.org/2000/svg">
<path fill-rule="evenodd" clip-rule="evenodd" d="M26.0607 4.93934C26.6464 5.52513 26.6464 6.47487 26.0607 7.06066L17.1213 16L26.0607 24.9393C26.6464 25.5251 26.6464 26.4749 26.0607 27.0607C25.4749 27.6464 24.5251 27.6464 23.9393 27.0607L13.9393 17.0607C13.3536 16.4749 13.3536 15.5251 13.9393 14.9393L23.9393 4.93934C24.5251 4.35355 25.4749 4.35355 26.0607 4.93934Z" fill="#889099"/>
<path fill-rule="evenodd" clip-rule="evenodd" d="M16.0607 4.93934C16.6464 5.52513 16.6464 6.47487 16.0607 7.06066L7.12132 16L16.0607 24.9393C16.6464 25.5251 16.6464 26.4749 16.0607 27.0607C15.4749 27.6464 14.5251 27.6464 13.9393 27.0607L3.93934 17.0607C3.35355 16.4749 3.35355 15.5251 3.93934 14.9393L13.9393 4.93934C14.5251 4.35355 15.4749 4.35355 16.0607 4.93934Z" fill="#889099"/>
</svg>
