<svg width="32" height="32" viewBox="0 0 32 32" fill="none" xmlns="http://www.w3.org/2000/svg">
<path d="M12.0002 19.4329C11.7305 19.4329 11.4875 19.5953 11.3843 19.8444C11.2811 20.0935 11.3381 20.3803 11.5288 20.5709L15.5287 24.571C15.6538 24.696 15.8233 24.7663 16.0002 24.7663C16.177 24.7663 16.3465 24.696 16.4716 24.571L20.4716 20.571C20.6623 20.3803 20.7193 20.0936 20.6161 19.8445C20.5129 19.5953 20.2698 19.4329 20.0002 19.4329L12.0002 19.4329Z" fill="#6F7680"/>
<path d="M16.4716 7.62861C16.3465 7.50359 16.177 7.43335 16.0002 7.43335C15.8233 7.43335 15.6538 7.50359 15.5287 7.62862L11.5288 11.6287C11.3381 11.8193 11.2811 12.1061 11.3843 12.3552C11.4875 12.6043 11.7305 12.7667 12.0002 12.7667L20.0002 12.7667C20.2698 12.7667 20.5129 12.6043 20.6161 12.3551C20.7193 12.106 20.6623 11.8193 20.4716 11.6286L16.4716 7.62861Z" fill="#6F7680"/>
</svg>
