<svg viewBox="0 0 20 20" xmlns="http://www.w3.org/2000/svg"><defs><path id="a" d="M3.107 7.536l-.483.626-.483-.626V2.82H.08L2.624.028 5.142 2.82H3.107z"/><path id="b" d="M3.107 7.536l-.483.626-.483-.626V2.82H.08L2.624.028 5.142 2.82H3.107z"/><path id="c" d="M2.973 7.353l-.462.612-.462-.612V2.751H.076L2.511.028l2.41 2.723H2.973z"/><path id="d" d="M3.107 7.536l-.483.626-.483-.626V2.82H.08L2.624.028 5.142 2.82H3.107z"/></defs><g fill="none" fill-rule="evenodd"><g  stroke-width=".75"><path d="M4.106 5.085H9.47v5.363H4.106zM10.618 5.085h5.363v5.363h-5.363zM10.618 11.597h5.363v5.363h-5.363zM4.106 11.597H9.47v5.363H4.106z"/></g><path  stroke-width=".75" d="M1.555 10.842l3.75-3.727 3.75 3.727-3.75 3.727zM6.109 6.316l3.75-3.727 3.75 3.727-3.75 3.727zM11 10.5L14.5 7l3.5 3.5-3.5 3.5zM6.109 15.367l3.75-3.727 3.75 3.727-3.75 3.727z"/></g></svg>
