<svg width="20" height="20" xmlns="http://www.w3.org/2000/svg"><path d="M13.007 12.07c1.182 0 2.893-.253 2.893-1.699a1.398 1.398 0 00-.028-.333l-.705-3.145c-.162-.692-.305-1.006-1.487-1.614C12.764 4.797 10.764 4 10.173 4c-.549 0-.71.73-1.366.73-.632 0-1.1-.545-1.693-.545-.567 0-.936.398-1.221 1.215 0 0-.795 2.306-.899 2.64a.642.642 0 00-.019.19c0 .896 3.433 3.835 8.032 3.835m3.076-1.107c.163.797.163.88.163.985 0 1.361-1.488 2.117-3.445 2.117-4.421.002-8.295-2.661-8.295-4.421 0-.245.048-.488.142-.714C3.061 9.007 1 9.3 1 11.167 1 14.227 8.054 18 13.638 18 17.92 18 19 16.009 19 14.437c0-1.237-1.04-2.64-2.915-3.479" fill="#939593" fill-rule="nonzero"/></svg>
