<svg viewBox="0 0 22 22" xmlns="http://www.w3.org/2000/svg"><path d="M15.737 5.118a1.34 1.34 0 00-1.32-1.344 1.334 1.334 0 00-1.352 1.333 1.336 1.336 0 002.672.01m0 11.771c0-.735-.6-1.335-1.333-1.336a1.337 1.337 0 101.333 1.337m-12.87-5.895a1.334 1.334 0 001.284 1.34 1.335 1.335 0 001.39-1.295c.023-.722-.558-1.35-1.27-1.375-.772-.027-1.379.548-1.404 1.33m5.564-5.193l.925 1.656c1.233-.518 2.44-.498 3.596.172 1.153.67 1.778 1.703 1.939 3.026l1.89-.028c0-.042.002-.076 0-.11a5.825 5.825 0 00-1.665-3.606c-.037-.036-.067-.039-.117-.027-.164.038-.33.086-.497.095a1.859 1.859 0 01-1.934-1.495c-.012-.056-.036-.082-.091-.096A5.801 5.801 0 008.43 5.8m.001 10.396l.05.026A5.739 5.739 0 0011 16.8c.492.002.977-.062 1.454-.184.074-.019.104-.049.12-.124.082-.395.271-.734.577-.998.545-.471 1.168-.593 1.855-.379.048.015.077.007.109-.029.085-.094.176-.184.26-.28a5.766 5.766 0 001.374-3.028c.018-.133.027-.267.041-.407-.642-.01-1.27-.02-1.899-.028-.16 1.325-.786 2.357-1.94 3.026-1.158.671-2.367.69-3.595.172l-.923 1.655M7.787 6.174c-.03.02-.055.034-.077.05-1.147.81-1.918 1.885-2.301 3.237-.016.056-.016.093.033.135.846.73.846 2.072 0 2.806-.044.039-.051.072-.036.128a5.775 5.775 0 001.856 2.901c.164.14.34.265.52.403l.977-1.64C7.692 13.388 7.11 12.335 7.11 11c0-1.337.585-2.392 1.65-3.197l-.972-1.629M10.567 1h.877c.04.005.082.013.123.015a9.869 9.869 0 012.014.32 10.007 10.007 0 017.348 10.854 9.827 9.827 0 01-1.697 4.487 9.976 9.976 0 01-10.016 4.163c-1.825-.329-3.433-1.117-4.827-2.34a9.992 9.992 0 01-3.21-9.364C1.603 6.943 2.64 5.088 4.293 3.59 5.93 2.105 7.86 1.261 10.06 1.044c.169-.016.337-.03.506-.044" fill-rule="evenodd"/></svg>