<?xml version="1.0" encoding="UTF-8" standalone="no"?><svg viewBox="0 0 24 24"><g fill-rule="evenodd"><path fill-opacity="0.3" d="m 4.9995113,6.9998003 5.9979997,-2.5 6.002,2.5 V 14.9998 l -6.002,2.5 -5.9979997,-2.5 z" id="path1"/><path d="M 11.648,11 20.286,5.105 V 16.896 L 11.648,11.001 Z M 11.354,21.069 V 11.67 l 8.572,5.838 -8.579,3.607 c 0,-0.018 0.007,-0.03 0.007,-0.047 z m -0.708,-9.398 v 9.445 L 2.074,17.51 10.646,11.672 Z m 0,-10.739 V 10.33 L 2.074,4.493 10.653,0.885 c 0,0 -0.007,0.029 -0.007,0.047 z m 0.701,-0.047 8.58,3.608 -8.573,5.837 V 0.932 c 0,0 -0.007,-0.029 -0.007,-0.047 z M 1.714,5.134 10.37,11 1.713,16.895 V 5.134 Z M 20.998,17.6 V 4.4 a 0.178,0.178 0 0 0 0,-0.047 A 0.34,0.34 0 0 0 20.79,4.075 L 11.138,0.03 a 0.326,0.326 0 0 0 -0.276,0 L 1.218,4.085 a 0.346,0.346 0 0 0 -0.217,0.28 0.138,0.138 0 0 0 0,0.036 v 13.2 a 0.173,0.173 0 0 0 0,0.046 c 0.015,0.125 0.095,0.231 0.21,0.28 l 9.651,4.044 c 0.088,0.039 0.188,0.039 0.276,0 l 9.644,-4.056 a 0.343,0.343 0 0 0 0.21,-0.278 0.164,0.164 0 0 0 0.006,-0.037 z"/></g></svg>