<?xml version="1.0" encoding="UTF-8"?>
<svg width="16px" height="16px" viewBox="0 0 16 16" version="1.1" xmlns="http://www.w3.org/2000/svg">
  <title>clean</title>
  <g id=" Page-1" stroke="none" stroke-width="1" fill="none" fill-rule="evenodd">
    <g id="disposition_icons" transform="translate(-77.000000, -138.000000)" fill="#6CC04A"
      class="a-icon--disposition-main-clean">
      <g id="Clean" transform="translate(77.000000, 137.796549)">
        <path
          d="M8.00044997,0 L8.00403079,0.202575531 C8.03158337,1.10694794 8.26028665,4.18655558 10.0397098,5.96226415 C11.819951,7.73960631 14.8958057,7.96801141 15.7980156,7.9962009 L16,8 C15.5239327,8.00179695 11.9979751,8.08265948 10.0397098,10.0377358 C8.08234434,11.9910153 8.00134991,15.5220126 8.00044997,16 L7.99310422,15.6998653 C7.95144673,14.6891937 7.68039925,11.7542541 5.96029023,10.0377358 C4.18004899,8.26039369 1.10419433,8.03198859 0.201984386,8.0037991 L0,8 L0.299322372,7.99266461 C1.30781174,7.95106336 4.23939036,7.68036157 5.96029023,5.96226415 C7.91765566,4.00898473 7.99865009,0.477987421 8.00044997,0 Z M13.9943879,1.98742138 C14.5376188,2.53049815 15.4432534,2.63972913 15.8217522,2.66140062 L15.978479,2.66666667 C15.8200033,2.66726565 14.646265,2.69421983 13.9943879,3.34591195 C13.4538198,3.88607811 13.3431656,4.78821763 13.3209807,5.17091484 L13.3155489,5.33333333 L13.3102828,5.17600912 C13.2886121,4.79627966 13.1793917,3.88848957 12.6364104,3.34591195 C12.0977064,2.80736082 11.2026136,2.69545485 10.8186178,2.67249294 L10.6523193,2.66666667 L10.809046,2.66140062 C11.1875449,2.63972913 12.0931794,2.53049815 12.6364104,1.98742138 C13.2155904,1.40867192 13.3012469,0.41439183 13.3135522,0.0886838054 L13.3155489,0 L13.3206889,0.157324216 C13.3421862,0.537053675 13.4514066,1.44484377 13.9943879,1.98742138 Z"
          id="clean"></path>
      </g>
    </g>
  </g>
</svg>
