<?xml version="1.0" encoding="UTF-8"?>
<svg width="22px" height="14px" viewBox="0 0 22 14" version="1.1" xmlns="http://www.w3.org/2000/svg">
  <title>Common</title>
  <g stroke="none" stroke-width="1">
    <g transform="translate(-74.000000, -166.000000)">
      <g transform="translate(44.000000, 166.000000)">
        <g transform="translate(30.000000, 0.000000)">
          <path
            d="M7,0.5 C8.10843365,0.5 9.1521092,0.777362307 10.0652821,1.26664656 C8.54692138,2.68374164 7.57671276,4.60033599 7.50434411,6.74246815 C7.50014712,9.24192674 8.49890442,11.2799379 10.0706072,12.6529949 C9.16245329,13.219374 8.11371572,13.5 7,13.5 C5.20507456,13.5 3.58007456,12.7724627 2.40380592,11.5961941 C1.22753728,10.4199254 0.5,8.79492544 0.5,7 C0.5,5.20507456 1.22753728,3.58007456 2.40380592,2.40380592 C3.58007456,1.22753728 5.20507456,0.5 7,0.5 Z M15,0.5 C16.7949254,0.5 18.4199254,1.22753728 19.5961941,2.40380592 C20.7724627,3.58007456 21.5,5.20507456 21.5,7 C21.5,8.79492544 20.7724627,10.4199254 19.5961941,11.5961941 C18.4199254,12.7724627 16.7949254,13.5 15,13.5 C13.8915664,13.5 12.8478908,13.2226377 11.9347179,12.7333534 C13.4530786,11.3162584 14.4232872,9.39966401 14.4956559,7.25753185 C14.4998529,4.75807326 13.5010956,2.72006212 11.9293928,1.34700506 C12.8375467,0.780626037 13.8862843,0.5 15,0.5 Z"
            stroke="#81CDF0" class="a-icon--disposition-main-stroke-common"></path>
          <path
            d="M14,6.85072893 L14,7.15010811 C14,9.52827176 12.8140641,11.6294452 11.0013298,12.8944911 C9.18637251,11.6302187 8,9.52870948 8,7.15010811 L8,6.85072893 C8,4.47212756 9.18637251,2.37061834 10.9996713,1.10564753 C12.8140641,2.37139181 14,4.47256529 14,6.85072893 Z"
            fill="#81CDF0" class="a-icon--disposition-main-common"></path>
        </g>
      </g>
    </g>
  </g>
</svg>
