<svg width="20" height="20" viewBox="0 0 20 20" xmlns="http://www.w3.org/2000/svg">
  <rect x="5" y="8" width="4" height="4" />
  <rect x="11" y="8" width="4" height="4" />
  <path
    d="M9.69532 1.25785C5.66407 1.40628 2.37501 4.6641 2.19532 8.70316C2.12852 10.0417 2.40928 11.3747 3.01028 12.5726C3.61127 13.7705 4.51205 14.7925 5.62501 15.5391V16.875C5.62501 17.2066 5.75671 17.5245 5.99113 17.7589C6.22555 17.9933 6.54349 18.125 6.87501 18.125H7.50001C7.58289 18.125 7.66238 18.0921 7.72098 18.0335C7.77959 17.9749 7.81251 17.8954 7.81251 17.8125V15.961C7.80994 15.7988 7.86899 15.6417 7.97774 15.5213C8.08648 15.401 8.23684 15.3264 8.39845 15.3125C8.48375 15.3072 8.56924 15.3194 8.64964 15.3484C8.73003 15.3774 8.80363 15.4226 8.86586 15.4812C8.9281 15.5398 8.97767 15.6105 9.01149 15.689C9.04531 15.7675 9.06268 15.8521 9.06251 15.9375V17.8125C9.06251 17.8954 9.09543 17.9749 9.15404 18.0335C9.21264 18.0921 9.29213 18.125 9.37501 18.125H10.625C10.7079 18.125 10.7874 18.0921 10.846 18.0335C10.9046 17.9749 10.9375 17.8954 10.9375 17.8125V15.961C10.9349 15.7988 10.994 15.6417 11.1027 15.5213C11.2115 15.401 11.3618 15.3264 11.5234 15.3125C11.6088 15.3072 11.6942 15.3194 11.7746 15.3484C11.855 15.3774 11.9286 15.4226 11.9909 15.4812C12.0531 15.5398 12.1027 15.6105 12.1365 15.689C12.1703 15.7675 12.1877 15.8521 12.1875 15.9375V17.8125C12.1875 17.8954 12.2204 17.9749 12.279 18.0335C12.3376 18.0921 12.4171 18.125 12.5 18.125H13.125C13.4565 18.125 13.7745 17.9933 14.0089 17.7589C14.2433 17.5245 14.375 17.2066 14.375 16.875V15.5391C15.7832 14.5883 16.8431 13.2043 17.3939 11.5968C17.9447 9.98942 17.9565 8.24624 17.4274 6.63155C16.8983 5.01685 15.8572 3.61867 14.4619 2.64896C13.0666 1.67924 11.3932 1.19086 9.69532 1.25785V1.25785ZM7.18751 11.875C6.87848 11.875 6.57638 11.7834 6.31943 11.6117C6.06248 11.44 5.86221 11.196 5.74395 10.9105C5.62569 10.625 5.59474 10.3108 5.65503 10.0077C5.71532 9.70461 5.86414 9.4262 6.08266 9.20768C6.30117 8.98916 6.57959 8.84035 6.88268 8.78006C7.18578 8.71977 7.49994 8.75071 7.78545 8.86897C8.07096 8.98723 8.31499 9.1875 8.48668 9.44445C8.65837 9.70141 8.75001 10.0035 8.75001 10.3125C8.74796 10.7263 8.58268 11.1225 8.2901 11.4151C7.99751 11.7077 7.60128 11.873 7.18751 11.875ZM12.8125 11.875C12.5035 11.875 12.2014 11.7834 11.9444 11.6117C11.6875 11.44 11.4872 11.196 11.3689 10.9105C11.2507 10.625 11.2197 10.3108 11.28 10.0077C11.3403 9.70461 11.4891 9.4262 11.7077 9.20768C11.9262 8.98916 12.2046 8.84035 12.5077 8.78006C12.8108 8.71977 13.1249 8.75071 13.4105 8.86897C13.696 8.98723 13.94 9.1875 14.1117 9.44445C14.2834 9.70141 14.375 10.0035 14.375 10.3125C14.373 10.7263 14.2077 11.1225 13.9151 11.4151C13.6225 11.7077 13.2263 11.873 12.8125 11.875V11.875Z"
    fill="#CC2D37" />
</svg>
