<svg width="20" height="20" viewBox="0 0 20 20" xmlns="http://www.w3.org/2000/svg">
  <rect x="7" y="7" width="6" height="6" />
  <path
    d="M19.3204 9.75C19.2969 9.6875 18.6329 8.21875 17.1641 6.74219C15.2032 4.78906 12.7266 3.75 10 3.75C7.27348 3.75 4.79692 4.78906 2.83598 6.74219C1.36723 8.21875 0.703168 9.6875 0.679731 9.75C0.644851 9.82873 0.626831 9.91389 0.626831 10C0.626831 10.0861 0.644851 10.1713 0.679731 10.25C0.703168 10.3125 1.36723 11.7812 2.83598 13.2578C4.79692 15.2109 7.27348 16.25 10 16.25C12.7266 16.25 15.2032 15.2109 17.1641 13.2578C18.6329 11.7812 19.2969 10.3125 19.3204 10.25C19.3552 10.1713 19.3733 10.0861 19.3733 10C19.3733 9.91389 19.3552 9.82873 19.3204 9.75V9.75ZM10 7.1875C10.5563 7.1875 11.1001 7.35245 11.5626 7.66149C12.0251 7.97053 12.3856 8.40979 12.5985 8.9237C12.8113 9.43762 12.867 10.0031 12.7585 10.5487C12.65 11.0943 12.3821 11.5954 11.9888 11.9887C11.5954 12.3821 11.0943 12.6499 10.5487 12.7585C10.0032 12.867 9.43766 12.8113 8.92375 12.5984C8.40983 12.3855 7.97058 12.0251 7.66154 11.5625C7.35249 11.1 7.18754 10.5563 7.18754 10C7.18754 9.25408 7.48386 8.53871 8.01131 8.01126C8.53875 7.48382 9.25412 7.1875 10 7.1875V7.1875Z"
    fill="#F7782F" class="a-icon--disposition-main-suspicious" />
</svg>
