<?xml version="1.0" encoding="UTF-8"?>
<svg width="14px" height="14px" viewBox="0 0 14 14" version="1.1" xmlns="http://www.w3.org/2000/svg">
  <g stroke="none" stroke-width="1" fill-rule="evenodd">
    <g transform="translate(-78.000000, -77.000000)">
      <g transform="translate(51.000000, 77.000000)">
        <g transform="translate(27.000000, 0.000000)">
          <rect fill="#7F7F86" x="0" y="0" width="14" height="14" rx="7"></rect>
          <path
            d="M6.934375,11.1941522 C7.87651609,11.1941522 8.61976073,10.988277 9.16410891,10.5765264 C9.79220297,10.1019664 10.10625,9.41455239 10.10625,8.51428424 L10.10625,8.51428424 L10.10625,3.5 L8.42086427,3.5 L8.42086427,8.62943482 C8.42086427,9.0202489 8.3057137,9.33080652 8.07541254,9.56110767 C7.81719609,9.81932412 7.44033966,9.94843234 6.94484323,9.94843234 C6.51913504,9.94843234 6.18415154,9.85072882 5.93989274,9.65532178 C5.66073982,9.42502063 5.52116337,9.08305831 5.52116337,8.62943482 L5.52116337,8.62943482 L5.52116337,3.5 L3.7625,3.5 L3.7625,8.51428424 C3.7625,9.30289123 4.00326939,9.92749587 4.48480817,10.3880982 C5.043114,10.9254675 5.85963628,11.1941522 6.934375,11.1941522 Z">
          </path>
        </g>
      </g>
    </g>
  </g>
</svg>
